<?xml version="1.0" encoding="utf-8"?>
<!-- Generator: Adobe Illustrator 21.0.0, SVG Export Plug-In . SVG Version: 6.00 Build 0)  -->
<svg version="1.1" xmlns="http://www.w3.org/2000/svg" xmlns:xlink="http://www.w3.org/1999/xlink" x="0px" y="0px"
	 viewBox="0 0 1920 1080" enable-background="new 0 0 1920 1080" xml:space="preserve">
<g id="kockak">
	<g>
		<g>
			<g enable-background="new    ">
				<g>
					<polygon fill="#13495C" points="570.941,627.999 561.823,623.039 561.928,566.555 571.046,571.515 					"/>
				</g>
				<g>
					<polygon fill="#1B6580" points="571.046,571.515 561.928,566.555 614.26,559.2 623.378,564.16 					"/>
				</g>
				<g>
					<polygon fill="#217D9E" points="623.378,564.16 623.273,620.644 570.941,627.999 571.046,571.515 					"/>
				</g>
			</g>
		</g>
	</g>
	<g>
		<g>
			<g enable-background="new    ">
				<g>
					<polygon fill="#13495C" points="512.135,627.999 503.018,623.039 503.123,566.556 512.24,571.516 					"/>
				</g>
				<g>
					<polygon fill="#1B6580" points="512.24,571.516 503.123,566.556 555.463,559.2 564.58,564.16 					"/>
				</g>
				<g>
					<polygon fill="#217D9E" points="564.58,564.16 564.475,620.643 512.135,627.999 512.24,571.516 					"/>
				</g>
			</g>
		</g>
	</g>
	<g>
		<g>
			<g enable-background="new    ">
				<g>
					<polygon fill="#13495C" points="387.628,443.831 378.51,438.871 378.613,383.338 387.731,388.298 					"/>
				</g>
				<g>
					<polygon fill="#1B6580" points="336.185,451.061 327.067,446.101 378.51,438.871 387.628,443.831 					"/>
				</g>
				<g>
					<polygon fill="#1B6580" points="336.288,395.528 327.17,390.568 378.613,383.338 387.731,388.298 					"/>
				</g>
				<g>
					<polygon fill="#13495C" points="336.185,451.061 327.067,446.101 327.17,390.568 336.288,395.528 					"/>
				</g>
				<g>
					<polygon fill="#217D9E" points="387.731,388.298 387.628,443.831 336.185,451.061 336.288,395.528 					"/>
				</g>
				<g>
					<polygon fill="#13495C" points="335.294,452.145 326.176,447.185 326.283,389.734 335.4,394.693 					"/>
				</g>
				<g>
					<polygon fill="#1B6580" points="335.4,394.693 326.283,389.734 379.504,382.254 388.622,387.214 					"/>
				</g>
				<g>
					<path fill="#217D9E" d="M335.4,394.693l53.221-7.48l-0.107,57.452l-53.221,7.48L335.4,394.693z M387.628,443.831l0.103-55.533
						l-51.443,7.23l-0.103,55.533L387.628,443.831"/>
				</g>
			</g>
		</g>
	</g>
	<g>
		<g>
			<g enable-background="new    ">
				<g>
					<polygon fill="#13495C" points="446.433,443.83 437.316,438.87 437.419,383.338 446.536,388.298 					"/>
				</g>
				<g>
					<polygon fill="#1B6580" points="394.982,451.061 385.865,446.101 437.316,438.87 446.433,443.83 					"/>
				</g>
				<g>
					<polygon fill="#1B6580" points="395.085,395.529 385.968,390.569 437.419,383.338 446.536,388.298 					"/>
				</g>
				<g>
					<polygon fill="#13495C" points="394.982,451.061 385.865,446.101 385.968,390.569 395.085,395.529 					"/>
				</g>
				<g>
					<polygon fill="#217D9E" points="446.536,388.298 446.433,443.83 394.982,451.061 395.085,395.529 					"/>
				</g>
				<g>
					<polygon fill="#13495C" points="394.091,452.146 384.974,447.186 385.081,389.734 394.198,394.694 					"/>
				</g>
				<g>
					<polygon fill="#1B6580" points="394.198,394.694 385.081,389.734 438.31,382.253 447.427,387.213 					"/>
				</g>
				<g>
					<path fill="#217D9E" d="M394.198,394.694l53.229-7.481l-0.107,57.452l-53.229,7.481L394.198,394.694z M446.433,443.83
						l0.103-55.533l-51.451,7.231l-0.103,55.533L446.433,443.83"/>
				</g>
			</g>
		</g>
	</g>
	<g>
		<g>
			<g enable-background="new    ">
				<g>
					<polygon fill="#13495C" points="453.338,627.999 444.22,623.039 444.325,566.555 453.443,571.515 					"/>
				</g>
				<g>
					<polygon fill="#1B6580" points="453.443,571.515 444.325,566.555 496.657,559.2 505.775,564.16 					"/>
				</g>
				<g>
					<polygon fill="#217D9E" points="505.775,564.16 505.67,620.644 453.338,627.999 453.443,571.515 					"/>
				</g>
			</g>
		</g>
	</g>
	<g>
		<g>
			<g enable-background="new    ">
				<g>
					<polygon fill="#13495C" points="394.541,627.999 385.423,623.039 385.528,566.555 394.646,571.515 					"/>
				</g>
				<g>
					<polygon fill="#1B6580" points="394.646,571.515 385.528,566.555 437.86,559.2 446.978,564.16 					"/>
				</g>
				<g>
					<polygon fill="#217D9E" points="446.978,564.16 446.873,620.644 394.541,627.999 394.646,571.515 					"/>
				</g>
			</g>
		</g>
	</g>
	<g>
		<g>
			<g enable-background="new    ">
				<g>
					<polygon fill="#13495C" points="335.735,627.999 326.618,623.039 326.723,566.556 335.84,571.516 					"/>
				</g>
				<g>
					<polygon fill="#1B6580" points="335.84,571.516 326.723,566.556 379.063,559.2 388.18,564.16 					"/>
				</g>
				<g>
					<polygon fill="#217D9E" points="388.18,564.16 388.075,620.643 335.735,627.999 335.84,571.516 					"/>
				</g>
			</g>
		</g>
	</g>
	<g>
	</g>
	<g>
	</g>
	<g>
	</g>
	<g>
	</g>
	<g>
	</g>
	<g>
	</g>
	<g>
	</g>
	<g>
		<g>
			<g enable-background="new    ">
				<g>
					<polygon fill="#13495C" points="564.028,561.425 554.91,556.465 555.013,500.941 564.131,505.901 					"/>
				</g>
				<g>
					<polygon fill="#1B6580" points="512.585,568.655 503.467,563.695 554.91,556.465 564.028,561.425 					"/>
				</g>
				<g>
					<polygon fill="#1B6580" points="512.688,513.131 503.57,508.171 555.013,500.941 564.131,505.901 					"/>
				</g>
				<g>
					<polygon fill="#13495C" points="512.585,568.655 503.467,563.695 503.57,508.171 512.688,513.131 					"/>
				</g>
				<g>
					<polygon fill="#217D9E" points="564.131,505.901 564.028,561.425 512.585,568.655 512.688,513.131 					"/>
				</g>
				<g>
					<polygon fill="#13495C" points="511.694,569.739 502.576,564.78 502.683,507.336 511.8,512.296 					"/>
				</g>
				<g>
					<polygon fill="#1B6580" points="511.8,512.296 502.683,507.336 555.904,499.857 565.022,504.816 					"/>
				</g>
				<g>
					<path fill="#217D9E" d="M511.8,512.296l53.221-7.48l-0.107,57.443l-53.221,7.48L511.8,512.296z M564.028,561.425l0.103-55.524
						l-51.443,7.23l-0.103,55.524L564.028,561.425"/>
				</g>
			</g>
		</g>
	</g>
	<g>
		<g>
			<g enable-background="new    ">
				<g>
					<polygon fill="#13495C" points="446.433,561.424 437.316,556.465 437.419,500.941 446.536,505.9 					"/>
				</g>
				<g>
					<polygon fill="#1B6580" points="394.982,568.655 385.865,563.695 437.316,556.465 446.433,561.424 					"/>
				</g>
				<g>
					<polygon fill="#1B6580" points="395.085,513.131 385.968,508.172 437.419,500.941 446.536,505.9 					"/>
				</g>
				<g>
					<polygon fill="#13495C" points="394.982,568.655 385.865,563.695 385.968,508.172 395.085,513.131 					"/>
				</g>
				<g>
					<polygon fill="#217D9E" points="446.536,505.9 446.433,561.424 394.982,568.655 395.085,513.131 					"/>
				</g>
				<g>
					<polygon fill="#13495C" points="394.091,569.74 384.974,564.78 385.081,507.337 394.198,512.297 					"/>
				</g>
				<g>
					<polygon fill="#1B6580" points="394.198,512.297 385.081,507.337 438.31,499.856 447.427,504.816 					"/>
				</g>
				<g>
					<path fill="#217D9E" d="M394.198,512.297l53.229-7.481l-0.107,57.443l-53.229,7.481L394.198,512.297z M446.433,561.424
						l0.103-55.524l-51.451,7.231l-0.103,55.524L446.433,561.424"/>
				</g>
			</g>
		</g>
	</g>
	<g>
		<g>
			<g enable-background="new    ">
				<g>
					<polygon fill="#13495C" points="505.23,502.628 496.113,497.668 496.216,442.144 505.334,447.104 					"/>
				</g>
				<g>
					<polygon fill="#1B6580" points="453.788,509.858 444.67,504.898 496.113,497.668 505.23,502.628 					"/>
				</g>
				<g>
					<polygon fill="#1B6580" points="453.891,454.334 444.773,449.374 496.216,442.144 505.334,447.104 					"/>
				</g>
				<g>
					<polygon fill="#13495C" points="453.788,509.858 444.67,504.898 444.773,449.374 453.891,454.334 					"/>
				</g>
				<g>
					<polygon fill="#217D9E" points="505.334,447.104 505.231,502.628 453.788,509.858 453.891,454.334 					"/>
				</g>
				<g>
					<polygon fill="#13495C" points="452.897,510.942 443.779,505.983 443.886,448.539 453.003,453.499 					"/>
				</g>
				<g>
					<polygon fill="#1B6580" points="453.003,453.499 443.886,448.539 497.107,441.06 506.225,446.019 					"/>
				</g>
				<g>
					<path fill="#217D9E" d="M453.003,453.499l53.221-7.48l-0.107,57.443l-53.221,7.48L453.003,453.499z M505.23,502.628
						l0.103-55.524l-51.443,7.23l-0.103,55.524L505.23,502.628"/>
				</g>
			</g>
		</g>
	</g>
	<g>
		<g>
			<g enable-background="new    ">
				<g>
					<polygon fill="#13495C" points="505.23,443.831 496.113,438.871 496.216,383.338 505.334,388.298 					"/>
				</g>
				<g>
					<polygon fill="#1B6580" points="453.788,451.061 444.67,446.101 496.113,438.871 505.23,443.831 					"/>
				</g>
				<g>
					<polygon fill="#1B6580" points="453.891,395.528 444.773,390.568 496.216,383.338 505.334,388.298 					"/>
				</g>
				<g>
					<polygon fill="#13495C" points="453.788,451.061 444.67,446.101 444.773,390.568 453.891,395.528 					"/>
				</g>
				<g>
					<path fill="#217D9E" d="M453.003,394.693l53.221-7.48l-0.107,57.452l-53.221,7.48L453.003,394.693z M505.23,443.831
						l0.103-55.533l-51.443,7.23l-0.103,55.533L505.23,443.831"/>
				</g>
				<g>
					<polygon fill="#217D9E" points="505.334,388.298 505.231,443.831 453.788,451.061 453.891,395.528 					"/>
				</g>
				<g>
					<polygon fill="#13495C" points="452.897,452.145 443.779,447.185 443.886,389.734 453.003,394.693 					"/>
				</g>
				<g>
					<polygon fill="#1B6580" points="453.003,394.693 443.886,389.734 497.107,382.254 506.225,387.214 					"/>
				</g>
			</g>
		</g>
	</g>
	<g>
		<g>
			<g enable-background="new    ">
				<g>
					<polygon fill="#13495C" points="564.028,443.831 554.91,438.871 555.013,383.338 564.131,388.298 					"/>
				</g>
				<g>
					<polygon fill="#1B6580" points="512.585,451.061 503.467,446.101 554.91,438.871 564.028,443.831 					"/>
				</g>
				<g>
					<polygon fill="#1B6580" points="512.688,395.528 503.57,390.568 555.013,383.338 564.131,388.298 					"/>
				</g>
				<g>
					<polygon fill="#13495C" points="512.585,451.061 503.467,446.101 503.57,390.568 512.688,395.528 					"/>
				</g>
				<g>
					<polygon fill="#217D9E" points="564.131,388.298 564.028,443.831 512.585,451.061 512.688,395.528 					"/>
				</g>
				<g>
					<polygon fill="#13495C" points="511.694,452.145 502.576,447.185 502.683,389.734 511.8,394.693 					"/>
				</g>
				<g>
					<polygon fill="#1B6580" points="511.8,394.693 502.683,389.734 555.904,382.254 565.022,387.214 					"/>
				</g>
				<g>
					<path fill="#217D9E" d="M511.8,394.693l53.221-7.48l-0.107,57.452l-53.221,7.48L511.8,394.693z M564.028,443.831l0.103-55.533
						l-51.443,7.23l-0.103,55.533L564.028,443.831"/>
				</g>
			</g>
		</g>
	</g>
	<g>
		<g>
			<g enable-background="new    ">
				<g>
					<polygon fill="#13495C" points="622.833,443.83 613.716,438.87 613.819,383.338 622.936,388.298 					"/>
				</g>
				<g>
					<polygon fill="#1B6580" points="571.382,451.061 562.265,446.101 613.716,438.87 622.833,443.83 					"/>
				</g>
				<g>
					<polygon fill="#1B6580" points="571.485,395.529 562.368,390.569 613.819,383.338 622.936,388.298 					"/>
				</g>
				<g>
					<polygon fill="#13495C" points="571.382,451.061 562.265,446.101 562.368,390.569 571.485,395.529 					"/>
				</g>
				<g>
					<polygon fill="#217D9E" points="622.936,388.298 622.833,443.83 571.382,451.061 571.485,395.529 					"/>
				</g>
				<g>
					<polygon fill="#13495C" points="570.491,452.146 561.374,447.186 561.481,389.734 570.598,394.694 					"/>
				</g>
				<g>
					<polygon fill="#1B6580" points="570.598,394.694 561.481,389.734 614.71,382.253 623.827,387.213 					"/>
				</g>
				<g>
					<path fill="#217D9E" d="M570.598,394.694l53.229-7.481l-0.107,57.452l-53.229,7.481L570.598,394.694z M622.833,443.83
						l0.103-55.533l-51.451,7.231l-0.103,55.533L622.833,443.83"/>
				</g>
			</g>
		</g>
	</g>
</g>
<g id="szoveg">
	<rect x="622" y="388" fill="none" width="435" height="235.5"/>
	<text transform="matrix(1 0 0 1 622 465.8784)"><tspan x="0" y="0" fill="#0B5068" font-family="'OCRAExtended'" font-size="120px">Design</tspan><tspan x="0" y="144" fill="#0B5068" font-family="'OCRAExtended'" font-size="120px">Studio</tspan></text>
	<rect x="627" y="393" fill="none" width="435" height="235.5"/>
	<text transform="matrix(1 0 0 1 627 470.8784)"><tspan x="0" y="0" fill="#268FB5" font-family="'OCRAExtended'" font-size="120px">Design</tspan><tspan x="0" y="144" fill="#268FB5" font-family="'OCRAExtended'" font-size="120px">Studio</tspan></text>
</g>
</svg>
