<?xml version="1.0" encoding="utf-8"?>
<!-- Generator: Adobe Illustrator 21.0.0, SVG Export Plug-In . SVG Version: 6.00 Build 0)  -->
<svg version="1.1" xmlns="http://www.w3.org/2000/svg" xmlns:xlink="http://www.w3.org/1999/xlink" x="0px" y="0px"
	 viewBox="0 0 1920 1080" enable-background="new 0 0 1920 1080" xml:space="preserve">
<g id="kockak">
	<g>
		<g>
			<g enable-background="new    ">
				<g>
					<polygon fill="#13495C" points="570.941,627.999 561.823,623.039 561.928,566.555 571.046,571.515 					"/>
				</g>
				<g>
					<polygon fill="#1B6580" points="571.046,571.515 561.928,566.555 614.26,559.2 623.378,564.16 					"/>
				</g>
				<g>
					<polygon fill="#217D9E" points="623.378,564.16 623.273,620.644 570.941,627.999 571.046,571.515 					"/>
				</g>
			</g>
		</g>
	</g>
	<g>
		<g>
			<g enable-background="new    ">
				<g>
					<polygon fill="#13495C" points="512.135,627.999 503.018,623.039 503.123,566.556 512.24,571.516 					"/>
				</g>
				<g>
					<polygon fill="#1B6580" points="512.24,571.516 503.123,566.556 555.463,559.2 564.58,564.16 					"/>
				</g>
				<g>
					<polygon fill="#217D9E" points="564.58,564.16 564.475,620.643 512.135,627.999 512.24,571.516 					"/>
				</g>
			</g>
		</g>
	</g>
	<g>
		<g>
			<g enable-background="new    ">
				<g>
					<polygon fill="#13495C" points="387.628,443.831 378.51,438.871 378.613,383.338 387.731,388.298 					"/>
				</g>
				<g>
					<polygon fill="#1B6580" points="336.185,451.061 327.067,446.101 378.51,438.871 387.628,443.831 					"/>
				</g>
				<g>
					<polygon fill="#1B6580" points="336.288,395.528 327.17,390.568 378.613,383.338 387.731,388.298 					"/>
				</g>
				<g>
					<polygon fill="#13495C" points="336.185,451.061 327.067,446.101 327.17,390.568 336.288,395.528 					"/>
				</g>
				<g>
					<polygon fill="#217D9E" points="387.731,388.298 387.628,443.831 336.185,451.061 336.288,395.528 					"/>
				</g>
				<g>
					<polygon fill="#13495C" points="335.294,452.145 326.176,447.185 326.283,389.734 335.4,394.693 					"/>
				</g>
				<g>
					<polygon fill="#1B6580" points="335.4,394.693 326.283,389.734 379.504,382.254 388.622,387.214 					"/>
				</g>
				<g>
					<path fill="#217D9E" d="M335.4,394.693l53.221-7.48l-0.107,57.452l-53.221,7.48L335.4,394.693z M387.628,443.831l0.103-55.533
						l-51.443,7.23l-0.103,55.533L387.628,443.831"/>
				</g>
			</g>
		</g>
	</g>
	<g>
		<g>
			<g enable-background="new    ">
				<g>
					<polygon fill="#13495C" points="446.433,443.83 437.316,438.87 437.419,383.338 446.536,388.298 					"/>
				</g>
				<g>
					<polygon fill="#1B6580" points="394.982,451.061 385.865,446.101 437.316,438.87 446.433,443.83 					"/>
				</g>
				<g>
					<polygon fill="#1B6580" points="395.085,395.529 385.968,390.569 437.419,383.338 446.536,388.298 					"/>
				</g>
				<g>
					<polygon fill="#13495C" points="394.982,451.061 385.865,446.101 385.968,390.569 395.085,395.529 					"/>
				</g>
				<g>
					<polygon fill="#217D9E" points="446.536,388.298 446.433,443.83 394.982,451.061 395.085,395.529 					"/>
				</g>
				<g>
					<polygon fill="#13495C" points="394.091,452.146 384.974,447.186 385.081,389.734 394.198,394.694 					"/>
				</g>
				<g>
					<polygon fill="#1B6580" points="394.198,394.694 385.081,389.734 438.31,382.253 447.427,387.213 					"/>
				</g>
				<g>
					<path fill="#217D9E" d="M394.198,394.694l53.229-7.481l-0.107,57.452l-53.229,7.481L394.198,394.694z M446.433,443.83
						l0.103-55.533l-51.451,7.231l-0.103,55.533L446.433,443.83"/>
				</g>
			</g>
		</g>
	</g>
	<g>
		<g>
			<g enable-background="new    ">
				<g>
					<polygon fill="#13495C" points="453.338,627.999 444.22,623.039 444.325,566.555 453.443,571.515 					"/>
				</g>
				<g>
					<polygon fill="#1B6580" points="453.443,571.515 444.325,566.555 496.657,559.2 505.775,564.16 					"/>
				</g>
				<g>
					<polygon fill="#217D9E" points="505.775,564.16 505.67,620.644 453.338,627.999 453.443,571.515 					"/>
				</g>
			</g>
		</g>
	</g>
	<g>
		<g>
			<g enable-background="new    ">
				<g>
					<polygon fill="#13495C" points="394.541,627.999 385.423,623.039 385.528,566.555 394.646,571.515 					"/>
				</g>
				<g>
					<polygon fill="#1B6580" points="394.646,571.515 385.528,566.555 437.86,559.2 446.978,564.16 					"/>
				</g>
				<g>
					<polygon fill="#217D9E" points="446.978,564.16 446.873,620.644 394.541,627.999 394.646,571.515 					"/>
				</g>
			</g>
		</g>
	</g>
	<g>
		<g>
			<g enable-background="new    ">
				<g>
					<polygon fill="#13495C" points="335.735,627.999 326.618,623.039 326.723,566.556 335.84,571.516 					"/>
				</g>
				<g>
					<polygon fill="#1B6580" points="335.84,571.516 326.723,566.556 379.063,559.2 388.18,564.16 					"/>
				</g>
				<g>
					<polygon fill="#217D9E" points="388.18,564.16 388.075,620.643 335.735,627.999 335.84,571.516 					"/>
				</g>
			</g>
		</g>
	</g>
	<g>
	</g>
	<g>
	</g>
	<g>
	</g>
	<g>
	</g>
	<g>
	</g>
	<g>
	</g>
	<g>
	</g>
	<g>
		<g>
			<g enable-background="new    ">
				<g>
					<polygon fill="#13495C" points="564.028,561.425 554.91,556.465 555.013,500.941 564.131,505.901 					"/>
				</g>
				<g>
					<polygon fill="#1B6580" points="512.585,568.655 503.467,563.695 554.91,556.465 564.028,561.425 					"/>
				</g>
				<g>
					<polygon fill="#1B6580" points="512.688,513.131 503.57,508.171 555.013,500.941 564.131,505.901 					"/>
				</g>
				<g>
					<polygon fill="#13495C" points="512.585,568.655 503.467,563.695 503.57,508.171 512.688,513.131 					"/>
				</g>
				<g>
					<polygon fill="#217D9E" points="564.131,505.901 564.028,561.425 512.585,568.655 512.688,513.131 					"/>
				</g>
				<g>
					<polygon fill="#13495C" points="511.694,569.739 502.576,564.78 502.683,507.336 511.8,512.296 					"/>
				</g>
				<g>
					<polygon fill="#1B6580" points="511.8,512.296 502.683,507.336 555.904,499.857 565.022,504.816 					"/>
				</g>
				<g>
					<path fill="#217D9E" d="M511.8,512.296l53.221-7.48l-0.107,57.443l-53.221,7.48L511.8,512.296z M564.028,561.425l0.103-55.524
						l-51.443,7.23l-0.103,55.524L564.028,561.425"/>
				</g>
			</g>
		</g>
	</g>
	<g>
		<g>
			<g enable-background="new    ">
				<g>
					<polygon fill="#13495C" points="446.433,561.424 437.316,556.465 437.419,500.941 446.536,505.9 					"/>
				</g>
				<g>
					<polygon fill="#1B6580" points="394.982,568.655 385.865,563.695 437.316,556.465 446.433,561.424 					"/>
				</g>
				<g>
					<polygon fill="#1B6580" points="395.085,513.131 385.968,508.172 437.419,500.941 446.536,505.9 					"/>
				</g>
				<g>
					<polygon fill="#13495C" points="394.982,568.655 385.865,563.695 385.968,508.172 395.085,513.131 					"/>
				</g>
				<g>
					<polygon fill="#217D9E" points="446.536,505.9 446.433,561.424 394.982,568.655 395.085,513.131 					"/>
				</g>
				<g>
					<polygon fill="#13495C" points="394.091,569.74 384.974,564.78 385.081,507.337 394.198,512.297 					"/>
				</g>
				<g>
					<polygon fill="#1B6580" points="394.198,512.297 385.081,507.337 438.31,499.856 447.427,504.816 					"/>
				</g>
				<g>
					<path fill="#217D9E" d="M394.198,512.297l53.229-7.481l-0.107,57.443l-53.229,7.481L394.198,512.297z M446.433,561.424
						l0.103-55.524l-51.451,7.231l-0.103,55.524L446.433,561.424"/>
				</g>
			</g>
		</g>
	</g>
	<g>
		<g>
			<g enable-background="new    ">
				<g>
					<polygon fill="#13495C" points="505.23,502.628 496.113,497.668 496.216,442.144 505.334,447.104 					"/>
				</g>
				<g>
					<polygon fill="#1B6580" points="453.788,509.858 444.67,504.898 496.113,497.668 505.23,502.628 					"/>
				</g>
				<g>
					<polygon fill="#1B6580" points="453.891,454.334 444.773,449.374 496.216,442.144 505.334,447.104 					"/>
				</g>
				<g>
					<polygon fill="#13495C" points="453.788,509.858 444.67,504.898 444.773,449.374 453.891,454.334 					"/>
				</g>
				<g>
					<polygon fill="#217D9E" points="505.334,447.104 505.231,502.628 453.788,509.858 453.891,454.334 					"/>
				</g>
				<g>
					<polygon fill="#13495C" points="452.897,510.942 443.779,505.983 443.886,448.539 453.003,453.499 					"/>
				</g>
				<g>
					<polygon fill="#1B6580" points="453.003,453.499 443.886,448.539 497.107,441.06 506.225,446.019 					"/>
				</g>
				<g>
					<path fill="#217D9E" d="M453.003,453.499l53.221-7.48l-0.107,57.443l-53.221,7.48L453.003,453.499z M505.23,502.628
						l0.103-55.524l-51.443,7.23l-0.103,55.524L505.23,502.628"/>
				</g>
			</g>
		</g>
	</g>
	<g>
		<g>
			<g enable-background="new    ">
				<g>
					<polygon fill="#13495C" points="505.23,443.831 496.113,438.871 496.216,383.338 505.334,388.298 					"/>
				</g>
				<g>
					<polygon fill="#1B6580" points="453.788,451.061 444.67,446.101 496.113,438.871 505.23,443.831 					"/>
				</g>
				<g>
					<polygon fill="#1B6580" points="453.891,395.528 444.773,390.568 496.216,383.338 505.334,388.298 					"/>
				</g>
				<g>
					<polygon fill="#13495C" points="453.788,451.061 444.67,446.101 444.773,390.568 453.891,395.528 					"/>
				</g>
				<g>
					<path fill="#217D9E" d="M453.003,394.693l53.221-7.48l-0.107,57.452l-53.221,7.48L453.003,394.693z M505.23,443.831
						l0.103-55.533l-51.443,7.23l-0.103,55.533L505.23,443.831"/>
				</g>
				<g>
					<polygon fill="#217D9E" points="505.334,388.298 505.231,443.831 453.788,451.061 453.891,395.528 					"/>
				</g>
				<g>
					<polygon fill="#13495C" points="452.897,452.145 443.779,447.185 443.886,389.734 453.003,394.693 					"/>
				</g>
				<g>
					<polygon fill="#1B6580" points="453.003,394.693 443.886,389.734 497.107,382.254 506.225,387.214 					"/>
				</g>
			</g>
		</g>
	</g>
	<g>
		<g>
			<g enable-background="new    ">
				<g>
					<polygon fill="#13495C" points="564.028,443.831 554.91,438.871 555.013,383.338 564.131,388.298 					"/>
				</g>
				<g>
					<polygon fill="#1B6580" points="512.585,451.061 503.467,446.101 554.91,438.871 564.028,443.831 					"/>
				</g>
				<g>
					<polygon fill="#1B6580" points="512.688,395.528 503.57,390.568 555.013,383.338 564.131,388.298 					"/>
				</g>
				<g>
					<polygon fill="#13495C" points="512.585,451.061 503.467,446.101 503.57,390.568 512.688,395.528 					"/>
				</g>
				<g>
					<polygon fill="#217D9E" points="564.131,388.298 564.028,443.831 512.585,451.061 512.688,395.528 					"/>
				</g>
				<g>
					<polygon fill="#13495C" points="511.694,452.145 502.576,447.185 502.683,389.734 511.8,394.693 					"/>
				</g>
				<g>
					<polygon fill="#1B6580" points="511.8,394.693 502.683,389.734 555.904,382.254 565.022,387.214 					"/>
				</g>
				<g>
					<path fill="#217D9E" d="M511.8,394.693l53.221-7.48l-0.107,57.452l-53.221,7.48L511.8,394.693z M564.028,443.831l0.103-55.533
						l-51.443,7.23l-0.103,55.533L564.028,443.831"/>
				</g>
			</g>
		</g>
	</g>
	<g>
		<g>
			<g enable-background="new    ">
				<g>
					<polygon fill="#13495C" points="622.833,443.83 613.716,438.87 613.819,383.338 622.936,388.298 					"/>
				</g>
				<g>
					<polygon fill="#1B6580" points="571.382,451.061 562.265,446.101 613.716,438.87 622.833,443.83 					"/>
				</g>
				<g>
					<polygon fill="#1B6580" points="571.485,395.529 562.368,390.569 613.819,383.338 622.936,388.298 					"/>
				</g>
				<g>
					<polygon fill="#13495C" points="571.382,451.061 562.265,446.101 562.368,390.569 571.485,395.529 					"/>
				</g>
				<g>
					<polygon fill="#217D9E" points="622.936,388.298 622.833,443.83 571.382,451.061 571.485,395.529 					"/>
				</g>
				<g>
					<polygon fill="#13495C" points="570.491,452.146 561.374,447.186 561.481,389.734 570.598,394.694 					"/>
				</g>
				<g>
					<polygon fill="#1B6580" points="570.598,394.694 561.481,389.734 614.71,382.253 623.827,387.213 					"/>
				</g>
				<g>
					<path fill="#217D9E" d="M570.598,394.694l53.229-7.481l-0.107,57.452l-53.229,7.481L570.598,394.694z M622.833,443.83
						l0.103-55.533l-51.451,7.231l-0.103,55.533L622.833,443.83"/>
				</g>
			</g>
		</g>
	</g>
</g>
<g id="szoveg">
	<g>
		<rect x="622" y="388" fill="none" width="435" height="235.5"/>
		<path fill="#0B5068" d="M638.934,388.007h19.453c2.539,0.04,5.01,0.86,7.412,2.461c2.402,1.602,4.169,3.536,5.303,5.801
			l9.727,19.688c1.835,3.555,2.754,7.266,2.754,11.133c0,3.594-0.977,7.286-2.93,11.074l-9.785,19.453
			c-1.25,2.5-3.047,4.502-5.391,6.006c-2.344,1.504-4.961,2.256-7.852,2.256h-18.809c-1.368,0-2.53-0.488-3.486-1.465
			c-0.958-0.976-1.436-2.128-1.436-3.457c0-1.367,0.478-2.549,1.436-3.545c0.957-0.996,2.119-1.494,3.486-1.494h5.156v-57.949
			h-5.039c-1.368,0-2.53-0.498-3.486-1.494c-0.958-0.996-1.436-2.177-1.436-3.545c0-1.328,0.478-2.48,1.436-3.457
			C636.404,388.496,637.566,388.007,638.934,388.007z M653.816,397.968v58.066l3.445-0.012c2.18,0,3.816-1.074,4.911-3.223
			l9.728-19.335c1.21-2.539,1.824-4.666,1.838-6.381c-0.002-2.144-0.49-4.173-1.466-6.087l-10.074-20.042
			c-1.055-1.992-2.773-2.987-5.157-2.986H653.816z"/>
		<path fill="#0B5068" d="M756.18,427.851v11.895c0,1.329-0.489,2.481-1.465,3.457c-0.977,0.977-2.129,1.465-3.457,1.465h-34.805
			v2.871c0,1.68,0.722,3.105,2.168,4.277l2.871,2.402c1.562,1.211,3.047,1.816,4.453,1.816h25.313c1.328,0,2.48,0.479,3.457,1.436
			c0.976,0.958,1.465,2.12,1.465,3.486c0,1.329-0.498,2.481-1.494,3.457c-0.996,0.977-2.139,1.465-3.428,1.465h-25.957
			c-1.719,0-3.526-0.361-5.42-1.084c-1.895-0.722-3.292-1.474-4.189-2.256l-4.395-3.867c-1.368-1.093-2.51-2.617-3.428-4.57
			c-0.918-1.953-1.377-3.75-1.377-5.391v-22.559c0-1.289,0.498-3.027,1.494-5.215c0.996-2.187,2.256-3.886,3.779-5.098l4.102-3.223
			c2.695-2.187,5.684-3.281,8.965-3.281h13.828c3.476,0,6.757,1.446,9.844,4.336l3.691,3.516
			C754.851,419.57,756.18,423.125,756.18,427.851z M716.57,427.089v7.617h29.883v-6.855c0-1.835-0.567-3.242-1.699-4.219
			l-2.871-2.52c-1.485-1.21-2.813-1.816-3.984-1.816h-12.363c-1.523,0-2.911,0.527-4.16,1.582l-2.871,2.402
			C717.215,424.258,716.57,425.527,716.57,427.089z"/>
		<path fill="#0B5068" d="M792.859,409.335h22.559c3.516,0,6.621,1.045,9.316,3.135c2.695,2.09,4.043,4.131,4.043,6.123
			c0,1.406-0.498,2.559-1.494,3.457c-0.996,0.899-2.1,1.348-3.311,1.348c-1.563,0-2.988-0.703-4.277-2.109s-2.637-2.109-4.043-2.109
			h-22.266c-2.188,0-3.281,0.91-3.281,2.73c0,1.278,0.729,2.246,2.19,2.904l26.169,11.651c2.656,1.172,4.834,3.057,6.533,5.654
			c1.699,2.598,2.549,5.479,2.549,8.643c0,4.219-1.494,7.793-4.482,10.723s-6.377,4.395-10.166,4.395h-19.922
			c-3.438,0-6.631-1.035-9.58-3.105c-2.95-2.07-4.424-4.082-4.424-6.035c0-1.289,0.478-2.432,1.436-3.428
			c0.957-0.996,2.197-1.494,3.721-1.494c1.25,0,2.587,0.703,4.014,2.109c1.425,1.406,3.486,2.109,6.182,2.109h18.34
			c1.445,0,2.656-0.557,3.633-1.67c0.976-1.113,1.465-2.392,1.465-3.838c0-2.227-1.094-3.828-3.281-4.805l-26.426-11.895
			c-2.54-1.132-4.493-2.773-5.859-4.922c-1.368-2.148-2.051-4.336-2.051-6.563c0-3.516,1.22-6.563,3.662-9.141
			C786.248,410.625,789.265,409.335,792.859,409.335z"/>
		<path fill="#0B5068" d="M891.297,465.761h-30c-1.368,0-2.53-0.478-3.486-1.436c-0.958-0.957-1.436-2.119-1.436-3.486
			c0-1.328,0.478-2.48,1.436-3.457c0.957-0.976,2.119-1.465,3.486-1.465h10.078v-36.738h-9.961c-1.368,0-2.53-0.488-3.486-1.465
			c-0.958-0.976-1.436-2.128-1.436-3.457c0-1.367,0.478-2.549,1.436-3.545c0.957-0.996,2.119-1.494,3.486-1.494h15
			c1.367,0,2.529,0.498,3.486,1.494c0.957,0.996,1.436,2.178,1.436,3.545v41.66h9.844c1.367,0,2.549,0.479,3.545,1.436
			c0.996,0.958,1.494,2.12,1.494,3.486c0,1.368-0.489,2.53-1.465,3.486C893.777,465.283,892.625,465.761,891.297,465.761z
			 M871.258,383.671h5.156c1.367,0,2.529,0.479,3.486,1.436c0.957,0.958,1.436,2.12,1.436,3.486v4.219
			c0,1.368-0.479,2.549-1.436,3.545c-0.958,0.996-2.12,1.494-3.486,1.494h-5.273c-1.406,0-2.588-0.507-3.545-1.523
			c-0.958-1.015-1.417-2.148-1.377-3.398l0.117-4.336c0-1.367,0.478-2.529,1.436-3.486
			C868.728,384.15,869.89,383.671,871.258,383.671z"/>
		<path fill="#0B5068" d="M954.988,486.972H933.66c-1.368,0-2.53-0.469-3.486-1.406c-0.958-0.938-1.436-2.109-1.436-3.516
			c0-1.368,0.478-2.52,1.436-3.457c0.957-0.938,2.119-1.406,3.486-1.406h21.328c1.289,0,2.5-0.489,3.633-1.465l3.34-2.871
			c1.133-0.86,1.699-1.992,1.699-3.398v-15c-4.61,4.649-9.102,6.973-13.477,6.973h-7.559c-3.907,0-7.422-1.348-10.547-4.043
			l-3.691-3.281c-1.211-1.015-2.256-2.5-3.135-4.453c-0.879-1.953-1.318-3.867-1.318-5.742v-16.289c0-2.304,0.439-4.492,1.318-6.563
			c0.879-2.07,1.923-3.613,3.135-4.629l4.043-3.457c2.89-2.5,6.289-3.75,10.195-3.75h7.09c3.867,0,7.383,1.368,10.547,4.102
			l3.398,2.871l-0.117-1.934c0-1.328,0.488-2.48,1.465-3.457c0.976-0.976,2.129-1.465,3.457-1.465c1.367,0,2.549,0.479,3.545,1.436
			c0.996,0.958,1.494,2.12,1.494,3.486v55.195c0,4.179-1.68,7.753-5.039,10.723l-3.984,3.457c-1.017,0.898-2.452,1.679-4.307,2.344
			C958.318,486.64,956.589,486.972,954.988,486.972z M949.363,419.062h-6.621c-1.446,0-2.833,0.567-4.16,1.699l-3.047,2.52
			c-1.172,0.977-1.758,2.305-1.758,3.984v16.406c0,1.329,0.645,2.578,1.934,3.75l3.223,2.871c1.015,0.86,2.089,1.289,3.223,1.289
			h8.027c1.172,0,2.461-0.586,3.867-1.758l7.793-6.621c1.21-1.055,1.816-2.344,1.816-3.867v-7.441c0-1.796-0.684-3.261-2.051-4.395
			l-8.027-6.855C952.449,419.589,951.042,419.062,949.363,419.062z"/>
		<path fill="#0B5068" d="M1019.82,420.761l-13.445,8.73v31.465c0,1.329-0.489,2.481-1.465,3.457
			c-0.977,0.977-2.13,1.465-3.457,1.465c-1.328,0-2.481-0.488-3.457-1.465c-0.977-0.976-1.465-2.128-1.465-3.457v-46.699
			c0-1.367,0.478-2.549,1.436-3.545c0.957-0.996,2.118-1.494,3.486-1.494c1.327,0,2.48,0.498,3.457,1.494
			c0.976,0.996,1.465,2.178,1.465,3.545v3.281l8.983-5.449c3.012-1.914,6.415-2.871,10.209-2.871h4.576
			c3.911,0,7.295,1.387,10.15,4.16c2.856,2.774,4.362,6.192,4.519,10.254l1.348,37.324c0.038,1.329-0.431,2.481-1.406,3.457
			c-0.977,0.977-2.148,1.465-3.516,1.465c-1.289,0-2.423-0.439-3.398-1.318c-0.977-0.879-1.485-2.08-1.523-3.604l-1.465-36.738
			c-0.117-3.437-1.918-5.156-5.401-5.156h-4.815C1023.147,419.062,1021.543,419.629,1019.82,420.761z"/>
		<path fill="#0B5068" d="M645.216,532.008h25.636c3.128,0,6.091,1.318,8.887,3.955c2.796,2.637,4.195,5.83,4.195,9.58
			c0,1.406-0.498,2.599-1.494,3.574c-0.996,0.977-2.1,1.465-3.311,1.465c-1.68,0-2.833-0.381-3.457-1.143
			c-0.625-0.762-1.221-2.177-1.789-4.248c-0.567-2.07-1.83-3.105-3.787-3.105h-24.362c-1.175,0-1.762,0.379-1.762,1.136
			c-0.031,0.479,0.208,1.029,0.717,1.654l36.6,46.666c1.762,2.264,2.644,4.685,2.644,7.263c0,2.93-1.065,5.508-3.193,7.734
			c-2.129,2.227-4.502,3.34-7.119,3.34h-26.543c-3.516,0-6.573-1.338-9.17-4.014c-2.598-2.675-3.896-5.615-3.896-8.818
			c0-3.671,1.718-5.508,5.156-5.508c1.328,0,2.461,0.479,3.398,1.436c0.938,0.958,1.406,2.08,1.406,3.369
			c0,1.055,0.361,1.934,1.084,2.637c0.722,0.703,1.63,1.055,2.725,1.055h24.492c1.055,0,1.582-0.418,1.582-1.254
			c0.029-0.397-0.21-0.909-0.72-1.534l-36.54-46.667c-1.723-2.225-2.584-4.646-2.584-7.264c0-3.047,1.095-5.693,3.285-7.939
			C639.486,533.131,642.126,532.008,645.216,532.008z"/>
		<path fill="#0B5068" d="M741.18,609.879h-9.844c-4.063,0-7.559-1.444-10.488-4.336c-2.93-2.891-4.395-6.366-4.395-10.43V563.18
			h-5.039c-1.368,0-2.53-0.469-3.486-1.406c-0.958-0.938-1.436-2.109-1.436-3.516c0-1.367,0.478-2.528,1.436-3.486
			c0.957-0.957,2.119-1.436,3.486-1.436h5.156v-12.07c0-1.367,0.478-2.529,1.436-3.486c0.957-0.957,2.119-1.436,3.486-1.436
			c1.289,0,2.432,0.489,3.428,1.465c0.996,0.977,1.494,2.129,1.494,3.457v12.07h19.805c1.328,0,2.48,0.489,3.457,1.465
			c0.976,0.977,1.465,2.13,1.465,3.457c0,1.368-0.489,2.529-1.465,3.486c-0.977,0.958-2.129,1.436-3.457,1.436h-19.922v31.934
			c0,1.328,0.498,2.481,1.494,3.457c0.996,0.977,2.177,1.465,3.545,1.465h9.609c2.617,0,4.355-1.415,5.215-4.248
			c0.859-2.832,2.52-4.248,4.98-4.248c1.445,0,2.626,0.479,3.545,1.436c0.917,0.958,1.377,2.159,1.377,3.604
			c0,2.969-1.397,5.928-4.189,8.877C749.08,608.405,745.516,609.879,741.18,609.879z"/>
		<path fill="#0B5068" d="M802.502,599.918l16.548-10.547v-31.113c0-1.367,0.478-2.549,1.436-3.545
			c0.957-0.996,2.119-1.494,3.486-1.494c1.367,0,2.529,0.498,3.486,1.494c0.957,0.996,1.436,2.178,1.436,3.545v46.699
			c0,1.328-0.489,2.481-1.465,3.457c-0.977,0.977-2.129,1.465-3.457,1.465c-1.329,0-2.481-0.488-3.457-1.465
			c-0.977-0.976-1.465-2.129-1.465-3.457v-3.867l-8.542,5.566c-3.354,2.148-6.747,3.223-10.18,3.223h-4.563
			c-4.017,0-7.47-1.406-10.355-4.219s-4.427-6.249-4.622-10.313l-1.465-37.09c-0.079-1.289,0.381-2.432,1.377-3.428
			s2.177-1.494,3.545-1.494c1.328,0,2.47,0.489,3.428,1.465c0.957,0.977,1.455,2.13,1.494,3.457l1.348,36.387
			c0.117,3.516,2.124,5.273,6.022,5.273H802.502z"/>
		<path fill="#0B5068" d="M891.18,560.191V536.93c0-1.367,0.469-2.529,1.406-3.486c0.938-0.957,2.07-1.436,3.398-1.436
			c1.367,0,2.549,0.479,3.545,1.436c0.996,0.958,1.494,2.12,1.494,3.486v68.027c0,1.368-0.489,2.529-1.465,3.486
			c-0.977,0.958-2.129,1.436-3.457,1.436c-1.406,0-2.578-0.478-3.516-1.436c-0.938-0.957-1.406-2.118-1.406-3.486v-2.168
			c-4.805,4.727-9.297,7.09-13.477,7.09h-8.379c-3.36,0-6.719-1.444-10.078-4.336l-4.102-3.457
			c-0.938-0.898-1.827-2.402-2.666-4.512c-0.84-2.109-1.26-4.081-1.26-5.918v-20.039c0-2.227,0.469-4.385,1.406-6.475
			c0.938-2.089,2.031-3.662,3.281-4.717l4.043-3.457c2.89-2.499,6.289-3.75,10.195-3.75h7.09c3.867,0,7.383,1.368,10.547,4.102
			L891.18,560.191z M876.883,563.18h-6.855c-1.446,0-2.754,0.527-3.926,1.582l-3.164,2.754c-1.094,0.977-1.641,2.227-1.641,3.75
			v20.859c0,1.368,0.645,2.599,1.934,3.691l3.223,2.754c1.015,0.899,2.089,1.348,3.223,1.348h8.027c1.055,0,2.304-0.605,3.75-1.816
			l7.793-6.445c1.289-1.133,1.934-2.539,1.934-4.219v-10.664c0-2.382-0.684-4.14-2.051-5.273l-8.027-6.855
			C880.047,563.669,878.641,563.18,876.883,563.18z"/>
		<path fill="#0B5068" d="M963.777,609.762h-30c-1.368,0-2.53-0.478-3.486-1.436c-0.958-0.957-1.436-2.118-1.436-3.486
			c0-1.327,0.478-2.48,1.436-3.457c0.957-0.976,2.119-1.465,3.486-1.465h10.078V563.18h-9.961c-1.368,0-2.53-0.488-3.486-1.465
			c-0.958-0.976-1.436-2.129-1.436-3.457c0-1.367,0.478-2.549,1.436-3.545c0.957-0.996,2.119-1.494,3.486-1.494h15
			c1.367,0,2.529,0.498,3.486,1.494c0.957,0.996,1.436,2.178,1.436,3.545v41.66h9.844c1.367,0,2.549,0.479,3.545,1.436
			c0.996,0.958,1.494,2.119,1.494,3.486c0,1.368-0.489,2.529-1.465,3.486C966.258,609.284,965.104,609.762,963.777,609.762z
			 M943.738,527.672h5.156c1.367,0,2.529,0.479,3.486,1.436c0.957,0.958,1.436,2.12,1.436,3.486v4.219
			c0,1.368-0.479,2.549-1.436,3.545c-0.958,0.996-2.12,1.494-3.486,1.494h-5.273c-1.406,0-2.588-0.508-3.545-1.523
			c-0.958-1.015-1.417-2.148-1.377-3.398l0.117-4.336c0-1.367,0.478-2.529,1.436-3.486
			C941.208,528.151,942.371,527.672,943.738,527.672z"/>
		<path fill="#0B5068" d="M1046.102,571.09v20.801c0,4.415-2.08,8.496-6.24,12.246s-8.447,5.625-12.861,5.625h-11.543
			c-4.492,0-8.789-1.904-12.891-5.713s-6.152-7.86-6.152-12.158V571.09c0-4.297,2.001-8.35,6.006-12.158
			c4.004-3.809,8.35-5.713,13.037-5.713H1027c4.414-0.078,8.701,1.758,12.861,5.508S1046.102,566.599,1046.102,571.09z
			 M1006.375,571.5v19.922c0,1.797,0.645,3.223,1.934,4.277l3.691,3.164c0.82,0.703,1.972,1.055,3.457,1.055h11.426
			c1.679,0,3.202-0.605,4.57-1.816l2.988-2.637c1.21-0.938,1.816-2.246,1.816-3.926v-19.922c0-1.953-0.606-3.398-1.816-4.336
			l-3.457-2.754c-1.172-0.976-2.54-1.465-4.102-1.465h-10.195c-2.227,0-3.946,0.527-5.156,1.582l-3.34,2.871
			C1006.98,568.532,1006.375,569.859,1006.375,571.5z"/>
	</g>
	<g>
		<rect x="627" y="393" fill="none" width="435" height="235.5"/>
		<path fill="#268FB5" d="M643.934,393.007h19.453c2.539,0.04,5.01,0.86,7.412,2.461c2.402,1.602,4.169,3.536,5.303,5.801
			l9.727,19.688c1.835,3.555,2.754,7.266,2.754,11.133c0,3.594-0.977,7.286-2.93,11.074l-9.785,19.453
			c-1.25,2.5-3.047,4.502-5.391,6.006c-2.344,1.504-4.961,2.256-7.852,2.256h-18.809c-1.368,0-2.53-0.488-3.486-1.465
			c-0.958-0.976-1.436-2.128-1.436-3.457c0-1.367,0.478-2.549,1.436-3.545c0.957-0.996,2.119-1.494,3.486-1.494h5.156v-57.949
			h-5.039c-1.368,0-2.53-0.498-3.486-1.494c-0.958-0.996-1.436-2.177-1.436-3.545c0-1.328,0.478-2.48,1.436-3.457
			C641.404,393.496,642.566,393.007,643.934,393.007z M658.816,402.968v58.066l3.445-0.012c2.18,0,3.816-1.074,4.911-3.223
			l9.728-19.335c1.21-2.539,1.824-4.666,1.838-6.381c-0.002-2.144-0.49-4.173-1.466-6.087l-10.074-20.042
			c-1.055-1.992-2.773-2.987-5.157-2.986H658.816z"/>
		<path fill="#268FB5" d="M761.18,432.851v11.895c0,1.329-0.489,2.481-1.465,3.457c-0.977,0.977-2.129,1.465-3.457,1.465h-34.805
			v2.871c0,1.68,0.722,3.105,2.168,4.277l2.871,2.402c1.562,1.211,3.047,1.816,4.453,1.816h25.313c1.328,0,2.48,0.479,3.457,1.436
			c0.976,0.958,1.465,2.12,1.465,3.486c0,1.329-0.498,2.481-1.494,3.457c-0.996,0.977-2.139,1.465-3.428,1.465h-25.957
			c-1.719,0-3.526-0.361-5.42-1.084c-1.895-0.722-3.292-1.474-4.189-2.256l-4.395-3.867c-1.368-1.093-2.51-2.617-3.428-4.57
			c-0.918-1.953-1.377-3.75-1.377-5.391v-22.559c0-1.289,0.498-3.027,1.494-5.215c0.996-2.187,2.256-3.886,3.779-5.098l4.102-3.223
			c2.695-2.187,5.684-3.281,8.965-3.281h13.828c3.476,0,6.757,1.446,9.844,4.336l3.691,3.516
			C759.851,424.57,761.18,428.125,761.18,432.851z M721.57,432.089v7.617h29.883v-6.855c0-1.835-0.567-3.242-1.699-4.219
			l-2.871-2.52c-1.485-1.21-2.813-1.816-3.984-1.816h-12.363c-1.523,0-2.911,0.527-4.16,1.582l-2.871,2.402
			C722.215,429.258,721.57,430.527,721.57,432.089z"/>
		<path fill="#268FB5" d="M797.859,414.335h22.559c3.516,0,6.621,1.045,9.316,3.135c2.695,2.09,4.043,4.131,4.043,6.123
			c0,1.406-0.498,2.559-1.494,3.457c-0.996,0.899-2.1,1.348-3.311,1.348c-1.563,0-2.988-0.703-4.277-2.109s-2.637-2.109-4.043-2.109
			h-22.266c-2.188,0-3.281,0.91-3.281,2.73c0,1.278,0.729,2.246,2.19,2.904l26.169,11.651c2.656,1.172,4.834,3.057,6.533,5.654
			c1.699,2.598,2.549,5.479,2.549,8.643c0,4.219-1.494,7.793-4.482,10.723s-6.377,4.395-10.166,4.395h-19.922
			c-3.438,0-6.631-1.035-9.58-3.105c-2.95-2.07-4.424-4.082-4.424-6.035c0-1.289,0.478-2.432,1.436-3.428
			c0.957-0.996,2.197-1.494,3.721-1.494c1.25,0,2.587,0.703,4.014,2.109c1.425,1.406,3.486,2.109,6.182,2.109h18.34
			c1.445,0,2.656-0.557,3.633-1.67c0.976-1.113,1.465-2.392,1.465-3.838c0-2.227-1.094-3.828-3.281-4.805l-26.426-11.895
			c-2.54-1.132-4.493-2.773-5.859-4.922c-1.368-2.148-2.051-4.336-2.051-6.563c0-3.516,1.22-6.563,3.662-9.141
			C791.248,415.625,794.265,414.335,797.859,414.335z"/>
		<path fill="#268FB5" d="M896.297,470.761h-30c-1.368,0-2.53-0.478-3.486-1.436c-0.958-0.957-1.436-2.119-1.436-3.486
			c0-1.328,0.478-2.48,1.436-3.457c0.957-0.976,2.119-1.465,3.486-1.465h10.078v-36.738h-9.961c-1.368,0-2.53-0.488-3.486-1.465
			c-0.958-0.976-1.436-2.128-1.436-3.457c0-1.367,0.478-2.549,1.436-3.545c0.957-0.996,2.119-1.494,3.486-1.494h15
			c1.367,0,2.529,0.498,3.486,1.494c0.957,0.996,1.436,2.178,1.436,3.545v41.66h9.844c1.367,0,2.549,0.479,3.545,1.436
			c0.996,0.958,1.494,2.12,1.494,3.486c0,1.368-0.489,2.53-1.465,3.486C898.777,470.283,897.625,470.761,896.297,470.761z
			 M876.258,388.671h5.156c1.367,0,2.529,0.479,3.486,1.436c0.957,0.958,1.436,2.12,1.436,3.486v4.219
			c0,1.368-0.479,2.549-1.436,3.545c-0.958,0.996-2.12,1.494-3.486,1.494h-5.273c-1.406,0-2.588-0.507-3.545-1.523
			c-0.958-1.015-1.417-2.148-1.377-3.398l0.117-4.336c0-1.367,0.478-2.529,1.436-3.486
			C873.728,389.15,874.89,388.671,876.258,388.671z"/>
		<path fill="#268FB5" d="M959.988,491.972H938.66c-1.368,0-2.53-0.469-3.486-1.406c-0.958-0.938-1.436-2.109-1.436-3.516
			c0-1.368,0.478-2.52,1.436-3.457c0.957-0.938,2.119-1.406,3.486-1.406h21.328c1.289,0,2.5-0.489,3.633-1.465l3.34-2.871
			c1.133-0.86,1.699-1.992,1.699-3.398v-15c-4.609,4.649-9.102,6.973-13.477,6.973h-7.559c-3.907,0-7.422-1.348-10.547-4.043
			l-3.691-3.281c-1.211-1.015-2.256-2.5-3.135-4.453c-0.879-1.953-1.318-3.867-1.318-5.742v-16.289c0-2.304,0.439-4.492,1.318-6.563
			c0.879-2.07,1.923-3.613,3.135-4.629l4.043-3.457c2.89-2.5,6.289-3.75,10.195-3.75h7.09c3.867,0,7.383,1.368,10.547,4.102
			l3.398,2.871l-0.117-1.934c0-1.328,0.488-2.48,1.465-3.457c0.976-0.976,2.129-1.465,3.457-1.465c1.367,0,2.549,0.479,3.545,1.436
			c0.996,0.958,1.494,2.12,1.494,3.486v55.195c0,4.179-1.68,7.753-5.039,10.723l-3.984,3.457c-1.017,0.898-2.452,1.679-4.307,2.344
			C963.318,491.64,961.59,491.972,959.988,491.972z M954.363,424.062h-6.621c-1.446,0-2.833,0.567-4.16,1.699l-3.047,2.52
			c-1.172,0.977-1.758,2.305-1.758,3.984v16.406c0,1.329,0.645,2.578,1.934,3.75l3.223,2.871c1.015,0.86,2.089,1.289,3.223,1.289
			h8.027c1.172,0,2.461-0.586,3.867-1.758l7.793-6.621c1.21-1.055,1.816-2.344,1.816-3.867v-7.441c0-1.796-0.684-3.261-2.051-4.395
			l-8.027-6.855C957.449,424.589,956.042,424.062,954.363,424.062z"/>
		<path fill="#268FB5" d="M1024.82,425.761l-13.445,8.73v31.465c0,1.329-0.489,2.481-1.465,3.457
			c-0.977,0.977-2.13,1.465-3.457,1.465c-1.328,0-2.481-0.488-3.457-1.465c-0.977-0.976-1.465-2.128-1.465-3.457v-46.699
			c0-1.367,0.478-2.549,1.436-3.545c0.957-0.996,2.118-1.494,3.486-1.494c1.327,0,2.48,0.498,3.457,1.494
			c0.976,0.996,1.465,2.178,1.465,3.545v3.281l8.983-5.449c3.012-1.914,6.415-2.871,10.209-2.871h4.576
			c3.911,0,7.295,1.387,10.15,4.16c2.856,2.774,4.362,6.192,4.519,10.254l1.348,37.324c0.038,1.329-0.431,2.481-1.406,3.457
			c-0.977,0.977-2.148,1.465-3.516,1.465c-1.289,0-2.423-0.439-3.398-1.318c-0.977-0.879-1.485-2.08-1.523-3.604l-1.465-36.738
			c-0.117-3.437-1.918-5.156-5.401-5.156h-4.815C1028.147,424.062,1026.543,424.629,1024.82,425.761z"/>
		<path fill="#268FB5" d="M650.216,537.008h25.636c3.128,0,6.091,1.318,8.887,3.955c2.796,2.637,4.195,5.83,4.195,9.58
			c0,1.406-0.498,2.599-1.494,3.574c-0.996,0.977-2.1,1.465-3.311,1.465c-1.68,0-2.833-0.381-3.457-1.143
			c-0.625-0.762-1.221-2.177-1.789-4.248c-0.567-2.07-1.83-3.105-3.787-3.105h-24.362c-1.175,0-1.762,0.379-1.762,1.136
			c-0.031,0.479,0.208,1.029,0.717,1.654l36.6,46.666c1.762,2.264,2.644,4.685,2.644,7.263c0,2.93-1.065,5.508-3.193,7.734
			c-2.129,2.227-4.502,3.34-7.119,3.34h-26.543c-3.516,0-6.573-1.338-9.17-4.014c-2.598-2.675-3.896-5.615-3.896-8.818
			c0-3.671,1.718-5.508,5.156-5.508c1.328,0,2.461,0.479,3.398,1.436c0.938,0.958,1.406,2.08,1.406,3.369
			c0,1.055,0.361,1.934,1.084,2.637c0.722,0.703,1.63,1.055,2.725,1.055h24.492c1.055,0,1.582-0.418,1.582-1.254
			c0.029-0.397-0.21-0.909-0.72-1.534l-36.54-46.667c-1.723-2.225-2.584-4.646-2.584-7.264c0-3.047,1.095-5.693,3.285-7.939
			C644.486,538.131,647.126,537.008,650.216,537.008z"/>
		<path fill="#268FB5" d="M746.18,614.879h-9.844c-4.063,0-7.559-1.444-10.488-4.336c-2.93-2.891-4.395-6.366-4.395-10.43V568.18
			h-5.039c-1.368,0-2.53-0.469-3.486-1.406c-0.958-0.938-1.436-2.109-1.436-3.516c0-1.367,0.478-2.528,1.436-3.486
			c0.957-0.957,2.119-1.436,3.486-1.436h5.156v-12.07c0-1.367,0.478-2.529,1.436-3.486c0.957-0.957,2.119-1.436,3.486-1.436
			c1.289,0,2.432,0.488,3.428,1.465s1.494,2.129,1.494,3.457v12.07h19.805c1.328,0,2.48,0.489,3.457,1.465
			c0.976,0.977,1.465,2.13,1.465,3.457c0,1.368-0.489,2.529-1.465,3.486c-0.977,0.958-2.129,1.436-3.457,1.436h-19.922v31.934
			c0,1.328,0.498,2.481,1.494,3.457c0.996,0.977,2.177,1.465,3.545,1.465h9.609c2.617,0,4.355-1.415,5.215-4.248
			c0.859-2.832,2.52-4.248,4.98-4.248c1.445,0,2.626,0.479,3.545,1.436c0.917,0.958,1.377,2.159,1.377,3.604
			c0,2.969-1.397,5.928-4.189,8.877C754.08,613.405,750.516,614.879,746.18,614.879z"/>
		<path fill="#268FB5" d="M807.502,604.918l16.548-10.547v-31.113c0-1.367,0.478-2.549,1.436-3.545
			c0.957-0.996,2.119-1.494,3.486-1.494c1.367,0,2.529,0.498,3.486,1.494c0.957,0.996,1.436,2.178,1.436,3.545v46.699
			c0,1.328-0.489,2.481-1.465,3.457c-0.977,0.977-2.129,1.465-3.457,1.465c-1.329,0-2.481-0.488-3.457-1.465
			c-0.977-0.976-1.465-2.129-1.465-3.457v-3.867l-8.542,5.566c-3.354,2.148-6.747,3.223-10.18,3.223h-4.563
			c-4.017,0-7.47-1.406-10.355-4.219s-4.427-6.249-4.622-10.313l-1.465-37.09c-0.079-1.289,0.381-2.432,1.377-3.428
			s2.177-1.494,3.545-1.494c1.328,0,2.47,0.489,3.428,1.465c0.957,0.977,1.455,2.13,1.494,3.457l1.348,36.387
			c0.117,3.516,2.124,5.273,6.022,5.273H807.502z"/>
		<path fill="#268FB5" d="M896.18,565.191V541.93c0-1.367,0.469-2.529,1.406-3.486c0.938-0.957,2.07-1.436,3.398-1.436
			c1.367,0,2.549,0.479,3.545,1.436c0.996,0.958,1.494,2.12,1.494,3.486v68.027c0,1.368-0.489,2.529-1.465,3.486
			c-0.977,0.958-2.129,1.436-3.457,1.436c-1.406,0-2.578-0.478-3.516-1.436c-0.938-0.957-1.406-2.118-1.406-3.486v-2.168
			c-4.805,4.727-9.297,7.09-13.477,7.09h-8.379c-3.36,0-6.719-1.444-10.078-4.336l-4.102-3.457
			c-0.938-0.898-1.827-2.402-2.666-4.512c-0.84-2.109-1.26-4.081-1.26-5.918v-20.039c0-2.227,0.469-4.385,1.406-6.475
			c0.938-2.089,2.031-3.662,3.281-4.717l4.043-3.457c2.89-2.499,6.289-3.75,10.195-3.75h7.09c3.867,0,7.383,1.368,10.547,4.102
			L896.18,565.191z M881.883,568.18h-6.855c-1.446,0-2.754,0.527-3.926,1.582l-3.164,2.754c-1.094,0.977-1.641,2.227-1.641,3.75
			v20.859c0,1.368,0.645,2.599,1.934,3.691l3.223,2.754c1.015,0.899,2.089,1.348,3.223,1.348h8.027c1.055,0,2.304-0.605,3.75-1.816
			l7.793-6.445c1.289-1.133,1.934-2.539,1.934-4.219v-10.664c0-2.382-0.684-4.14-2.051-5.273l-8.027-6.855
			C885.047,568.669,883.641,568.18,881.883,568.18z"/>
		<path fill="#268FB5" d="M968.777,614.762h-30c-1.368,0-2.53-0.478-3.486-1.436c-0.958-0.957-1.436-2.118-1.436-3.486
			c0-1.327,0.478-2.48,1.436-3.457c0.957-0.976,2.119-1.465,3.486-1.465h10.078V568.18h-9.961c-1.368,0-2.53-0.488-3.486-1.465
			c-0.958-0.976-1.436-2.129-1.436-3.457c0-1.367,0.478-2.549,1.436-3.545c0.957-0.996,2.119-1.494,3.486-1.494h15
			c1.367,0,2.529,0.498,3.486,1.494c0.957,0.996,1.436,2.178,1.436,3.545v41.66h9.844c1.367,0,2.549,0.479,3.545,1.436
			c0.996,0.958,1.494,2.119,1.494,3.486c0,1.368-0.489,2.529-1.465,3.486C971.258,614.284,970.104,614.762,968.777,614.762z
			 M948.738,532.672h5.156c1.367,0,2.529,0.479,3.486,1.436c0.957,0.958,1.436,2.12,1.436,3.486v4.219
			c0,1.367-0.479,2.549-1.436,3.545c-0.958,0.996-2.12,1.494-3.486,1.494h-5.273c-1.406,0-2.588-0.508-3.545-1.523
			c-0.958-1.016-1.417-2.148-1.377-3.398l0.117-4.336c0-1.367,0.478-2.529,1.436-3.486
			C946.208,533.151,947.371,532.672,948.738,532.672z"/>
		<path fill="#268FB5" d="M1051.102,576.09v20.801c0,4.415-2.08,8.496-6.24,12.246s-8.447,5.625-12.861,5.625h-11.543
			c-4.492,0-8.789-1.904-12.891-5.713s-6.152-7.86-6.152-12.158V576.09c0-4.297,2.001-8.35,6.006-12.158
			c4.004-3.809,8.35-5.713,13.037-5.713H1032c4.414-0.078,8.701,1.758,12.861,5.508S1051.102,571.599,1051.102,576.09z
			 M1011.375,576.5v19.922c0,1.797,0.645,3.223,1.934,4.277l3.691,3.164c0.82,0.703,1.972,1.055,3.457,1.055h11.426
			c1.679,0,3.202-0.605,4.57-1.816l2.988-2.637c1.21-0.938,1.816-2.246,1.816-3.926v-19.922c0-1.953-0.606-3.398-1.816-4.336
			l-3.457-2.754c-1.172-0.976-2.54-1.465-4.102-1.465h-10.195c-2.227,0-3.946,0.527-5.156,1.582l-3.34,2.871
			C1011.98,573.532,1011.375,574.859,1011.375,576.5z"/>
	</g>
	<g>
	</g>
	<g>
	</g>
	<g>
	</g>
	<g>
	</g>
	<g>
	</g>
	<g>
	</g>
	<g>
	</g>
	<g>
	</g>
	<g>
	</g>
	<g>
	</g>
	<g>
	</g>
	<g>
	</g>
	<g>
	</g>
	<g>
	</g>
	<g>
	</g>
</g>
</svg>
