<?xml version="1.0" encoding="utf-8"?>
<!-- Generator: Adobe Illustrator 21.0.0, SVG Export Plug-In . SVG Version: 6.00 Build 0)  -->
<svg version="1.1" xmlns="http://www.w3.org/2000/svg" xmlns:xlink="http://www.w3.org/1999/xlink" x="0px" y="0px"
	 viewBox="0 0 1920 1080" enable-background="new 0 0 1920 1080" xml:space="preserve">
<g id="kockak">
	<g>
		<g>
			<g enable-background="new    ">
				<g>
					<polygon fill="#13495C" points="641.117,849.107 632,844.147 632.274,696.398 641.392,701.357 					"/>
				</g>
				<g>
					<polygon fill="#1B6580" points="641.392,701.357 632.274,696.398 769.173,677.158 778.29,682.118 					"/>
				</g>
				<g>
					<polygon fill="#217D9E" points="778.29,682.118 778.016,829.867 641.117,849.107 641.392,701.357 					"/>
				</g>
			</g>
		</g>
	</g>
	<g>
		<g>
			<g enable-background="new    ">
				<g>
					<polygon fill="#13495C" points="487.307,849.107 478.19,844.147 478.464,696.398 487.582,701.357 					"/>
				</g>
				<g>
					<polygon fill="#1B6580" points="487.582,701.357 478.464,696.398 615.363,677.158 624.48,682.118 					"/>
				</g>
				<g>
					<polygon fill="#217D9E" points="624.48,682.118 624.206,829.867 487.307,849.107 487.582,701.357 					"/>
				</g>
			</g>
		</g>
	</g>
	<g>
		<g>
			<g enable-background="new    ">
				<g>
					<polygon fill="#13495C" points="162.327,368.024 153.21,363.064 153.483,216.266 162.6,221.226 					"/>
				</g>
				<g>
					<polygon fill="#1B6580" points="26.326,387.138 17.209,382.178 153.21,363.064 162.327,368.024 					"/>
				</g>
				<g>
					<polygon fill="#1B6580" points="26.599,240.339 17.482,235.38 153.483,216.266 162.6,221.226 					"/>
				</g>
				<g>
					<polygon fill="#13495C" points="26.326,387.138 17.209,382.178 17.482,235.38 26.599,240.339 					"/>
				</g>
				<g>
					<polygon fill="#217D9E" points="162.6,221.226 162.327,368.024 26.326,387.138 26.599,240.339 					"/>
				</g>
				<g>
					<polygon fill="#13495C" points="25.427,388.224 16.31,383.264 16.586,234.546 25.704,239.506 					"/>
				</g>
				<g>
					<polygon fill="#1B6580" points="25.704,239.506 16.586,234.546 154.374,215.181 163.491,220.141 					"/>
				</g>
				<g>
					<path fill="#217D9E" d="M25.704,239.506l137.787-19.365l-0.276,148.718L25.427,388.224L25.704,239.506z M162.327,368.024
						l0.273-146.799L26.599,240.339l-0.273,146.799L162.327,368.024"/>
				</g>
			</g>
		</g>
	</g>
	<g>
		<g>
			<g enable-background="new    ">
				<g>
					<polygon fill="#13495C" points="316.137,368.024 307.02,363.064 307.293,216.266 316.41,221.226 					"/>
				</g>
				<g>
					<polygon fill="#1B6580" points="180.128,387.139 171.011,382.179 307.02,363.064 316.137,368.024 					"/>
				</g>
				<g>
					<polygon fill="#1B6580" points="180.401,240.341 171.284,235.381 307.293,216.266 316.41,221.226 					"/>
				</g>
				<g>
					<polygon fill="#13495C" points="180.128,387.139 171.011,382.179 171.284,235.381 180.401,240.341 					"/>
				</g>
				<g>
					<polygon fill="#217D9E" points="316.41,221.226 316.137,368.024 180.128,387.139 180.401,240.341 					"/>
				</g>
				<g>
					<polygon fill="#13495C" points="179.237,388.224 170.12,383.264 170.396,234.546 179.513,239.506 					"/>
				</g>
				<g>
					<polygon fill="#1B6580" points="179.513,239.506 170.396,234.546 308.184,215.181 317.301,220.141 					"/>
				</g>
				<g>
					<path fill="#217D9E" d="M179.513,239.506l137.787-19.365l-0.276,148.718l-137.787,19.365L179.513,239.506z M316.137,368.024
						l0.273-146.799L180.401,240.34l-0.273,146.799L316.137,368.024"/>
				</g>
			</g>
		</g>
	</g>
	<g>
		<g>
			<g enable-background="new    ">
				<g>
					<polygon fill="#13495C" points="333.497,849.107 324.38,844.147 324.654,696.398 333.772,701.357 					"/>
				</g>
				<g>
					<polygon fill="#1B6580" points="333.772,701.357 324.654,696.398 461.553,677.158 470.67,682.118 					"/>
				</g>
				<g>
					<polygon fill="#217D9E" points="470.67,682.118 470.396,829.867 333.497,849.107 333.772,701.357 					"/>
				</g>
			</g>
		</g>
	</g>
	<g>
		<g>
			<g enable-background="new    ">
				<g>
					<polygon fill="#13495C" points="179.687,849.107 170.57,844.147 170.844,696.398 179.962,701.357 					"/>
				</g>
				<g>
					<polygon fill="#1B6580" points="179.962,701.357 170.844,696.398 307.743,677.158 316.86,682.118 					"/>
				</g>
				<g>
					<polygon fill="#217D9E" points="316.86,682.118 316.586,829.867 179.687,849.107 179.962,701.357 					"/>
				</g>
			</g>
		</g>
	</g>
	<g>
		<g>
			<g enable-background="new    ">
				<g>
					<polygon fill="#13495C" points="25.877,849.107 16.76,844.147 17.034,696.398 26.152,701.357 					"/>
				</g>
				<g>
					<polygon fill="#1B6580" points="26.152,701.357 17.034,696.398 153.933,677.158 163.05,682.118 					"/>
				</g>
				<g>
					<polygon fill="#217D9E" points="163.05,682.118 162.775,829.867 25.877,849.107 26.152,701.357 					"/>
				</g>
			</g>
		</g>
	</g>
	<g>
	</g>
	<g>
	</g>
	<g>
	</g>
	<g>
	</g>
	<g>
	</g>
	<g>
	</g>
	<g>
	</g>
	<g>
		<g>
			<g enable-background="new    ">
				<g>
					<polygon fill="#13495C" points="623.757,675.644 614.64,670.684 614.913,523.886 624.03,528.846 					"/>
				</g>
				<g>
					<polygon fill="#1B6580" points="487.748,694.759 478.631,689.799 614.64,670.684 623.757,675.644 					"/>
				</g>
				<g>
					<polygon fill="#1B6580" points="488.021,547.961 478.904,543.001 614.913,523.886 624.03,528.846 					"/>
				</g>
				<g>
					<polygon fill="#13495C" points="487.748,694.759 478.631,689.799 478.904,543.001 488.021,547.961 					"/>
				</g>
				<g>
					<path fill="#217D9E" d="M487.133,547.126l137.787-19.365l-0.276,148.718l-137.787,19.365L487.133,547.126z M623.757,675.644
						l0.273-146.799L488.021,547.96l-0.273,146.799L623.757,675.644"/>
				</g>
				<g>
					<polygon fill="#217D9E" points="624.03,528.846 623.757,675.644 487.748,694.759 488.021,547.961 					"/>
				</g>
				<g>
					<polygon fill="#13495C" points="486.857,695.844 477.74,690.884 478.016,542.166 487.133,547.126 					"/>
				</g>
				<g>
					<polygon fill="#1B6580" points="487.133,547.126 478.016,542.166 615.803,522.801 624.921,527.761 					"/>
				</g>
			</g>
		</g>
	</g>
	<g>
		<g>
			<g enable-background="new    ">
				<g>
					<polygon fill="#13495C" points="316.137,675.644 307.02,670.684 307.293,523.886 316.41,528.846 					"/>
				</g>
				<g>
					<polygon fill="#1B6580" points="180.128,694.759 171.011,689.799 307.02,670.684 316.137,675.644 					"/>
				</g>
				<g>
					<polygon fill="#1B6580" points="180.401,547.961 171.284,543.001 307.293,523.886 316.41,528.846 					"/>
				</g>
				<g>
					<polygon fill="#13495C" points="180.128,694.759 171.011,689.799 171.284,543.001 180.401,547.961 					"/>
				</g>
				<g>
					<polygon fill="#217D9E" points="316.41,528.846 316.137,675.644 180.128,694.759 180.401,547.961 					"/>
				</g>
				<g>
					<polygon fill="#13495C" points="179.237,695.844 170.12,690.884 170.396,542.166 179.513,547.126 					"/>
				</g>
				<g>
					<polygon fill="#1B6580" points="179.513,547.126 170.396,542.166 308.184,522.801 317.301,527.761 					"/>
				</g>
				<g>
					<path fill="#217D9E" d="M179.513,547.126l137.787-19.365l-0.276,148.718l-137.787,19.365L179.513,547.126z M316.137,675.644
						l0.273-146.799L180.401,547.96l-0.273,146.799L316.137,675.644"/>
				</g>
			</g>
		</g>
	</g>
	<g>
		<g>
			<g enable-background="new    ">
				<g>
					<polygon fill="#13495C" points="469.947,521.834 460.83,516.874 461.103,370.076 470.22,375.036 					"/>
				</g>
				<g>
					<polygon fill="#1B6580" points="333.938,540.949 324.821,535.989 460.83,516.874 469.947,521.834 					"/>
				</g>
				<g>
					<polygon fill="#1B6580" points="334.211,394.151 325.094,389.191 461.103,370.076 470.22,375.036 					"/>
				</g>
				<g>
					<polygon fill="#13495C" points="333.938,540.949 324.821,535.989 325.094,389.191 334.211,394.151 					"/>
				</g>
				<g>
					<polygon fill="#217D9E" points="470.22,375.036 469.947,521.834 333.938,540.949 334.211,394.151 					"/>
				</g>
				<g>
					<polygon fill="#13495C" points="333.047,542.034 323.93,537.074 324.206,388.356 333.324,393.316 					"/>
				</g>
				<g>
					<polygon fill="#1B6580" points="333.324,393.316 324.206,388.356 461.994,368.991 471.111,373.951 					"/>
				</g>
				<g>
					<path fill="#217D9E" d="M333.324,393.316l137.787-19.365l-0.276,148.718l-137.787,19.365L333.324,393.316z M469.947,521.834
						l0.273-146.798L334.211,394.15l-0.273,146.798L469.947,521.834"/>
				</g>
			</g>
		</g>
	</g>
	<g>
		<g>
			<g enable-background="new    ">
				<g>
					<polygon fill="#13495C" points="469.947,368.024 460.83,363.064 461.103,216.266 470.22,221.226 					"/>
				</g>
				<g>
					<polygon fill="#1B6580" points="333.938,387.139 324.821,382.179 460.83,363.064 469.947,368.024 					"/>
				</g>
				<g>
					<polygon fill="#1B6580" points="334.211,240.341 325.094,235.381 461.103,216.266 470.22,221.226 					"/>
				</g>
				<g>
					<polygon fill="#13495C" points="333.938,387.139 324.821,382.179 325.094,235.381 334.211,240.341 					"/>
				</g>
				<g>
					<path fill="#217D9E" d="M333.324,239.506l137.787-19.365l-0.276,148.718l-137.787,19.365L333.324,239.506z M469.947,368.024
						l0.273-146.799L334.211,240.34l-0.273,146.799L469.947,368.024"/>
				</g>
				<g>
					<polygon fill="#217D9E" points="470.22,221.226 469.947,368.024 333.938,387.139 334.211,240.341 					"/>
				</g>
				<g>
					<polygon fill="#13495C" points="333.047,388.224 323.93,383.264 324.206,234.546 333.324,239.506 					"/>
				</g>
				<g>
					<polygon fill="#1B6580" points="333.324,239.506 324.206,234.546 461.994,215.181 471.111,220.141 					"/>
				</g>
			</g>
		</g>
	</g>
	<g>
		<g>
			<g enable-background="new    ">
				<g>
					<polygon fill="#13495C" points="623.757,368.024 614.64,363.064 614.913,216.266 624.03,221.226 					"/>
				</g>
				<g>
					<polygon fill="#1B6580" points="487.748,387.139 478.631,382.179 614.64,363.064 623.757,368.024 					"/>
				</g>
				<g>
					<polygon fill="#1B6580" points="488.021,240.341 478.904,235.381 614.913,216.266 624.03,221.226 					"/>
				</g>
				<g>
					<polygon fill="#13495C" points="487.748,387.139 478.631,382.179 478.904,235.381 488.021,240.341 					"/>
				</g>
				<g>
					<polygon fill="#217D9E" points="624.03,221.226 623.757,368.024 487.748,387.139 488.021,240.341 					"/>
				</g>
				<g>
					<polygon fill="#13495C" points="486.857,388.224 477.74,383.264 478.016,234.546 487.133,239.506 					"/>
				</g>
				<g>
					<polygon fill="#1B6580" points="487.133,239.506 478.016,234.546 615.803,215.181 624.921,220.141 					"/>
				</g>
				<g>
					<path fill="#217D9E" d="M487.133,239.506l137.787-19.365l-0.276,148.718l-137.787,19.365L487.133,239.506z M623.757,368.024
						l0.273-146.799L488.021,240.34l-0.273,146.799L623.757,368.024"/>
				</g>
			</g>
		</g>
	</g>
	<g>
		<g>
			<g enable-background="new    ">
				<g>
					<polygon fill="#13495C" points="777.567,368.024 768.45,363.064 768.723,216.266 777.84,221.226 					"/>
				</g>
				<g>
					<polygon fill="#1B6580" points="641.558,387.139 632.441,382.179 768.45,363.064 777.567,368.024 					"/>
				</g>
				<g>
					<polygon fill="#1B6580" points="641.831,240.341 632.714,235.381 768.723,216.266 777.84,221.226 					"/>
				</g>
				<g>
					<polygon fill="#13495C" points="641.558,387.139 632.441,382.179 632.714,235.381 641.831,240.341 					"/>
				</g>
				<g>
					<path fill="#217D9E" d="M640.944,239.506l137.787-19.365l-0.276,148.718l-137.787,19.365L640.944,239.506z M777.567,368.024
						l0.273-146.799L641.831,240.34l-0.273,146.799L777.567,368.024"/>
				</g>
				<g>
					<polygon fill="#217D9E" points="777.84,221.226 777.567,368.024 641.558,387.139 641.831,240.341 					"/>
				</g>
				<g>
					<polygon fill="#13495C" points="640.667,388.224 631.55,383.264 631.826,234.546 640.944,239.506 					"/>
				</g>
				<g>
					<polygon fill="#1B6580" points="640.944,239.506 631.826,234.546 769.614,215.181 778.731,220.141 					"/>
				</g>
			</g>
		</g>
	</g>
</g>
<g id="szoveg">
	<g>
		<rect x="782.046" y="225.323" fill="none" width="1137.875" height="616.022"/>
		<path fill="#0B5068" d="M826.342,225.343h50.886c6.641,0.103,13.104,2.249,19.389,6.437c6.284,4.191,10.906,9.249,13.871,15.174
			l25.443,51.499c4.802,9.299,7.204,19.005,7.204,29.122c0,9.402-2.555,19.058-7.664,28.968l-25.596,50.886
			c-3.271,6.54-7.97,11.778-14.101,15.71c-6.131,3.935-12.978,5.901-20.538,5.901h-49.2c-3.578,0-6.617-1.276-9.12-3.832
			c-2.505-2.553-3.755-5.568-3.755-9.043c0-3.576,1.25-6.667,3.755-9.273c2.503-2.605,5.542-3.908,9.12-3.908h13.488V251.399
			h-13.181c-3.578,0-6.617-1.303-9.12-3.908c-2.505-2.606-3.755-5.695-3.755-9.273c0-3.473,1.25-6.488,3.755-9.043
			C819.725,226.622,822.764,225.343,826.342,225.343z M865.272,251.399v151.89l9.012-0.031c5.702,0,9.984-2.81,12.846-8.43
			l25.445-50.577c3.166-6.641,4.771-12.204,4.809-16.692c-0.005-5.609-1.281-10.916-3.834-15.923l-26.353-52.425
			c-2.759-5.211-7.254-7.814-13.49-7.812H865.272z"/>
		<path fill="#0B5068" d="M1133.034,329.566v31.114c0,3.475-1.278,6.49-3.831,9.043c-2.556,2.555-5.57,3.832-9.043,3.832h-91.042
			v7.51c0,4.395,1.889,8.124,5.671,11.189l7.51,6.284c4.086,3.168,7.97,4.751,11.648,4.751h66.213c3.473,0,6.487,1.253,9.043,3.755
			c2.553,2.505,3.831,5.544,3.831,9.12c0,3.475-1.303,6.49-3.908,9.043c-2.605,2.555-5.594,3.832-8.966,3.832h-67.898
			c-4.498,0-9.223-0.943-14.178-2.835c-4.957-1.89-8.609-3.856-10.959-5.901l-11.495-10.116c-3.578-2.859-6.566-6.845-8.966-11.955
			c-2.402-5.108-3.603-9.81-3.603-14.101v-59.009c0-3.372,1.303-7.917,3.909-13.641c2.605-5.721,5.9-10.166,9.886-13.334
			l10.729-8.43c7.051-5.721,14.867-8.583,23.45-8.583h36.172c9.093,0,17.677,3.781,25.749,11.342l9.656,9.196
			C1129.56,307.905,1133.034,317.204,1133.034,329.566z M1029.424,327.574v19.925h78.168v-17.933c0-4.802-1.482-8.48-4.444-11.035
			l-7.511-6.591c-3.885-3.166-7.356-4.751-10.422-4.751h-32.34c-3.985,0-7.613,1.379-10.883,4.139l-7.51,6.284
			C1031.11,320.167,1029.424,323.488,1029.424,327.574z"/>
		<path fill="#0B5068" d="M1228.981,281.133h59.009c9.196,0,17.319,2.735,24.37,8.2c7.051,5.468,10.575,10.806,10.575,16.017
			c0,3.678-1.303,6.693-3.908,9.042c-2.605,2.352-5.493,3.525-8.659,3.525c-4.088,0-7.817-1.839-11.189-5.518
			c-3.371-3.679-6.896-5.518-10.575-5.518h-58.242c-5.724,0-8.583,2.381-8.583,7.142c0,3.343,1.908,5.875,5.728,7.597l68.455,30.477
			c6.947,3.065,12.645,7.997,17.089,14.791c4.445,6.796,6.667,14.331,6.667,22.607c0,11.035-3.908,20.385-11.725,28.048
			s-16.683,11.495-26.593,11.495h-52.111c-8.992,0-17.346-2.706-25.06-8.124c-7.716-5.415-11.572-10.676-11.572-15.787
			c0-3.372,1.25-6.361,3.756-8.966c2.502-2.605,5.747-3.908,9.732-3.908c3.269,0,6.768,1.839,10.499,5.518
			c3.729,3.679,9.119,5.518,16.17,5.518h47.974c3.778,0,6.947-1.456,9.502-4.368c2.554-2.912,3.832-6.257,3.832-10.039
			c0-5.824-2.861-10.013-8.583-12.568l-69.125-31.114c-6.643-2.962-11.751-7.254-15.326-12.875
			c-3.578-5.618-5.365-11.342-5.365-17.166c0-9.196,3.192-17.167,9.58-23.91C1211.686,284.505,1219.579,281.133,1228.981,281.133z"
			/>
		<path fill="#0B5068" d="M1486.475,428.732h-78.474c-3.578,0-6.617-1.25-9.12-3.755c-2.505-2.503-3.755-5.542-3.755-9.12
			c0-3.473,1.25-6.488,3.755-9.043c2.503-2.553,5.542-3.832,9.12-3.832h26.362v-96.101h-26.056c-3.578,0-6.617-1.276-9.12-3.832
			c-2.505-2.553-3.755-5.568-3.755-9.043c0-3.575,1.25-6.667,3.755-9.273c2.503-2.605,5.542-3.908,9.12-3.908h39.236
			c3.576,0,6.615,1.303,9.12,3.908c2.502,2.606,3.755,5.698,3.755,9.273v108.975h25.749c3.576,0,6.668,1.252,9.273,3.755
			c2.605,2.505,3.908,5.544,3.908,9.12c0,3.578-1.279,6.617-3.832,9.12C1492.963,427.482,1489.947,428.732,1486.475,428.732z
			 M1434.057,214.001h13.487c3.576,0,6.615,1.252,9.12,3.755c2.502,2.505,3.755,5.544,3.755,9.12v11.035
			c0,3.578-1.253,6.667-3.755,9.273c-2.505,2.605-5.544,3.908-9.12,3.908h-13.794c-3.679,0-6.771-1.327-9.272-3.985
			c-2.505-2.656-3.705-5.618-3.603-8.89l0.307-11.342c0-3.576,1.25-6.615,3.755-9.12
			C1427.439,215.253,1430.479,214.001,1434.057,214.001z"/>
		<path fill="#0B5068" d="M1653.079,484.216h-55.79c-3.578,0-6.617-1.226-9.12-3.679c-2.505-2.452-3.755-5.518-3.755-9.196
			c0-3.578,1.25-6.59,3.755-9.042c2.503-2.453,5.542-3.679,9.12-3.679h55.79c3.372,0,6.538-1.279,9.503-3.832l8.736-7.51
			c2.962-2.249,4.444-5.211,4.444-8.89v-39.237c-12.058,12.161-23.81,18.239-35.252,18.239h-19.771
			c-10.219,0-19.415-3.525-27.589-10.576l-9.656-8.583c-3.168-2.656-5.9-6.538-8.199-11.648c-2.299-5.108-3.449-10.116-3.449-15.021
			v-42.609c0-6.028,1.15-11.75,3.449-17.167c2.299-5.415,5.031-9.45,8.199-12.108l10.576-9.043
			c7.561-6.538,16.45-9.809,26.669-9.809h18.546c10.115,0,19.312,3.578,27.588,10.729l8.89,7.51l-0.307-5.058
			c0-3.473,1.276-6.487,3.832-9.043c2.553-2.553,5.568-3.832,9.043-3.832c3.575,0,6.667,1.252,9.272,3.755
			c2.606,2.505,3.909,5.544,3.909,9.12v144.38c0,10.932-4.395,20.282-13.182,28.048l-10.422,9.043
			c-2.659,2.349-6.414,4.392-11.266,6.13C1661.789,483.346,1657.268,484.216,1653.079,484.216z M1638.365,306.576h-17.319
			c-3.781,0-7.41,1.482-10.883,4.445l-7.97,6.59c-3.065,2.555-4.598,6.03-4.598,10.422v42.916c0,3.475,1.686,6.744,5.058,9.81
			l8.43,7.51c2.656,2.249,5.465,3.372,8.43,3.372h20.998c3.065,0,6.438-1.533,10.116-4.598l20.385-17.319
			c3.166-2.759,4.751-6.131,4.751-10.116v-19.465c0-4.699-1.789-8.53-5.364-11.495l-20.998-17.933
			C1646.436,307.956,1642.757,306.576,1638.365,306.576z"/>
		<path fill="#0B5068" d="M1822.667,311.021l-35.17,22.837v82.306c0,3.475-1.279,6.49-3.832,9.043
			c-2.556,2.555-5.57,3.832-9.043,3.832c-3.475,0-6.49-1.276-9.043-3.832c-2.556-2.553-3.832-5.568-3.832-9.043V294.008
			c0-3.575,1.25-6.667,3.756-9.273c2.502-2.605,5.541-3.908,9.119-3.908c3.473,0,6.487,1.303,9.043,3.908
			c2.553,2.606,3.832,5.698,3.832,9.273v8.583l23.498-14.254c7.879-5.005,16.78-7.51,26.705-7.51h11.972
			c10.23,0,19.082,3.628,26.551,10.882c7.47,7.256,11.409,16.196,11.819,26.822l3.524,97.633c0.101,3.475-1.125,6.49-3.678,9.043
			c-2.556,2.555-5.621,3.832-9.196,3.832c-3.372,0-6.337-1.149-8.89-3.449c-2.556-2.299-3.885-5.441-3.985-9.426l-3.832-96.1
			c-0.306-8.99-5.017-13.488-14.129-13.488h-12.595C1831.37,306.576,1827.172,308.059,1822.667,311.021z"/>
		<path fill="#0B5068" d="M842.775,602.019h67.058c8.183,0,15.933,3.448,23.247,10.346c7.313,6.897,10.973,15.25,10.973,25.06
			c0,3.678-1.303,6.797-3.909,9.35c-2.605,2.555-5.494,3.832-8.66,3.832c-4.395,0-7.41-0.997-9.043-2.989
			c-1.636-1.993-3.195-5.694-4.679-11.112c-1.485-5.414-4.788-8.123-9.905-8.123h-63.727c-3.073,0-4.608,0.991-4.608,2.972
			c-0.082,1.251,0.544,2.692,1.875,4.325l95.738,122.07c4.61,5.922,6.917,12.254,6.917,18.998c0,7.663-2.786,14.407-8.354,20.231
			c-5.57,5.824-11.778,8.736-18.622,8.736h-69.431c-9.196,0-17.193-3.499-23.987-10.499c-6.796-6.998-10.192-14.688-10.192-23.067
			c0-9.603,4.495-14.407,13.488-14.407c3.472,0,6.437,1.253,8.89,3.756c2.452,2.504,3.678,5.44,3.678,8.813
			c0,2.759,0.944,5.058,2.835,6.897c1.89,1.839,4.265,2.759,7.127,2.759h64.067c2.759,0,4.138-1.093,4.138-3.281
			c0.077-1.039-0.551-2.378-1.882-4.012L820.228,650.6c-4.507-5.818-6.761-12.153-6.761-19c0-7.971,2.864-14.891,8.593-20.768
			C827.788,604.957,834.693,602.019,842.775,602.019z"/>
		<path fill="#0B5068" d="M1093.798,805.714h-25.75c-10.628,0-19.771-3.779-27.435-11.342c-7.664-7.561-11.495-16.654-11.495-27.282
			v-83.532h-13.182c-3.578,0-6.617-1.226-9.119-3.679c-2.506-2.451-3.756-5.518-3.756-9.195c0-3.576,1.25-6.615,3.756-9.12
			c2.502-2.503,5.541-3.755,9.119-3.755h13.487v-31.574c0-3.574,1.251-6.613,3.756-9.119c2.502-2.502,5.541-3.755,9.119-3.755
			c3.372,0,6.36,1.278,8.967,3.831c2.605,2.557,3.908,5.571,3.908,9.043v31.574h51.805c3.473,0,6.488,1.279,9.043,3.832
			c2.553,2.555,3.832,5.57,3.832,9.043c0,3.578-1.279,6.617-3.832,9.119c-2.555,2.505-5.57,3.755-9.043,3.755h-52.111v83.532
			c0,3.475,1.303,6.49,3.908,9.043c2.605,2.556,5.695,3.832,9.272,3.832h25.137c6.845,0,11.393-3.703,13.641-11.112
			c2.247-7.407,6.591-11.112,13.028-11.112c3.779,0,6.871,1.253,9.272,3.756c2.4,2.504,3.603,5.646,3.603,9.426
			c0,7.767-3.655,15.506-10.959,23.22C1114.463,801.858,1105.14,805.714,1093.798,805.714z"/>
		<path fill="#0B5068" d="M1254.206,779.658l43.287-27.589v-81.386c0-3.576,1.25-6.668,3.755-9.273
			c2.503-2.605,5.542-3.908,9.12-3.908c3.575,0,6.614,1.303,9.119,3.908c2.503,2.605,3.755,5.697,3.755,9.273v122.155
			c0,3.476-1.278,6.49-3.831,9.043c-2.556,2.556-5.571,3.832-9.043,3.832c-3.476,0-6.49-1.276-9.043-3.832
			c-2.556-2.553-3.832-5.567-3.832-9.043v-10.115l-22.344,14.561c-8.774,5.62-17.65,8.43-26.628,8.43h-11.937
			c-10.509,0-19.539-3.679-27.088-11.035c-7.549-7.357-11.579-16.348-12.089-26.976l-3.832-97.02
			c-0.206-3.373,0.996-6.361,3.602-8.967s5.695-3.908,9.273-3.908c3.473,0,6.461,1.279,8.966,3.832
			c2.503,2.555,3.806,5.57,3.908,9.043l3.525,95.18c0.307,9.196,5.557,13.795,15.754,13.795H1254.206z"/>
		<path fill="#0B5068" d="M1486.168,675.741v-60.849c0-3.575,1.227-6.614,3.679-9.119c2.452-2.502,5.415-3.755,8.89-3.755
			c3.575,0,6.667,1.253,9.272,3.755c2.606,2.505,3.909,5.544,3.909,9.119v177.946c0,3.578-1.279,6.617-3.832,9.12
			c-2.556,2.505-5.57,3.755-9.043,3.755c-3.679,0-6.744-1.25-9.196-3.755c-2.452-2.503-3.679-5.542-3.679-9.12v-5.671
			c-12.567,12.365-24.319,18.546-35.252,18.546h-21.917c-8.789,0-17.576-3.779-26.362-11.342l-10.729-9.043
			c-2.452-2.35-4.777-6.284-6.974-11.802c-2.198-5.518-3.295-10.676-3.295-15.48v-52.418c0-5.824,1.226-11.469,3.678-16.937
			c2.453-5.465,5.313-9.579,8.583-12.339l10.576-9.043c7.561-6.537,16.45-9.809,26.669-9.809h18.546
			c10.115,0,19.312,3.578,27.588,10.729L1486.168,675.741z M1448.771,683.558h-17.933c-3.781,0-7.204,1.38-10.27,4.139l-8.276,7.204
			c-2.861,2.555-4.291,5.824-4.291,9.809v54.564c0,3.578,1.686,6.797,5.058,9.655l8.43,7.204c2.656,2.352,5.465,3.525,8.43,3.525
			h20.998c2.759,0,6.028-1.583,9.81-4.752l20.385-16.859c3.372-2.963,5.058-6.641,5.058-11.035v-27.896
			c0-6.231-1.789-10.829-5.364-13.794l-20.998-17.933C1457.047,684.837,1453.368,683.558,1448.771,683.558z"/>
		<path fill="#0B5068" d="M1676.069,805.407h-78.474c-3.578,0-6.617-1.25-9.12-3.755c-2.505-2.503-3.755-5.542-3.755-9.12
			c0-3.472,1.25-6.487,3.755-9.042c2.503-2.554,5.542-3.832,9.12-3.832h26.362v-96.101h-26.056c-3.578,0-6.617-1.276-9.12-3.831
			c-2.505-2.553-3.755-5.568-3.755-9.043c0-3.576,1.25-6.668,3.755-9.273c2.503-2.605,5.542-3.908,9.12-3.908h39.236
			c3.576,0,6.615,1.303,9.12,3.908c2.502,2.605,3.755,5.697,3.755,9.273v108.975h25.749c3.576,0,6.668,1.252,9.273,3.755
			c2.605,2.505,3.908,5.544,3.908,9.119c0,3.578-1.279,6.617-3.832,9.12C1682.558,804.157,1679.542,805.407,1676.069,805.407z
			 M1623.651,590.676h13.487c3.576,0,6.615,1.253,9.12,3.756c2.502,2.505,3.755,5.544,3.755,9.119v11.035
			c0,3.578-1.253,6.668-3.755,9.273c-2.505,2.605-5.544,3.908-9.12,3.908h-13.794c-3.679,0-6.771-1.326-9.272-3.984
			c-2.505-2.656-3.705-5.619-3.603-8.891l0.307-11.342c0-3.575,1.25-6.614,3.755-9.119
			C1617.034,591.929,1620.073,590.676,1623.651,590.676z"/>
		<path fill="#0B5068" d="M1891.413,704.25v54.41c0,11.548-5.44,22.224-16.322,32.033c-10.883,9.81-22.098,14.714-33.644,14.714
			h-30.193c-11.752,0-22.991-4.981-33.72-14.943c-10.729-9.963-16.094-20.563-16.094-31.804v-54.41
			c0-11.24,5.235-21.842,15.711-31.805c10.473-9.962,21.841-14.943,34.103-14.943h30.193c11.546-0.203,22.761,4.598,33.644,14.407
			C1885.973,681.719,1891.413,692.5,1891.413,704.25z M1787.497,705.322v52.111c0,4.701,1.686,8.43,5.058,11.189l9.656,8.276
			c2.146,1.839,5.158,2.759,9.043,2.759h29.887c4.393,0,8.378-1.583,11.955-4.752l7.817-6.896c3.166-2.453,4.751-5.875,4.751-10.27
			v-52.111c0-5.108-1.585-8.89-4.751-11.342l-9.043-7.204c-3.065-2.553-6.644-3.831-10.729-3.831h-26.669
			c-5.824,0-10.321,1.379-13.487,4.138l-8.736,7.511C1789.08,697.559,1787.497,701.031,1787.497,705.322z"/>
	</g>
	<g>
		<rect x="795.125" y="238.402" fill="none" width="1137.875" height="616.022"/>
		<path fill="#268FB5" d="M839.42,238.421h50.886c6.641,0.103,13.104,2.249,19.389,6.437c6.284,4.191,10.906,9.249,13.871,15.174
			l25.443,51.499c4.802,9.299,7.204,19.005,7.204,29.122c0,9.402-2.555,19.058-7.664,28.968l-25.596,50.886
			c-3.271,6.54-7.97,11.778-14.101,15.71c-6.131,3.935-12.978,5.901-20.538,5.901h-49.2c-3.578,0-6.617-1.276-9.12-3.832
			c-2.505-2.553-3.755-5.568-3.755-9.043c0-3.576,1.25-6.667,3.755-9.273c2.503-2.605,5.542-3.908,9.12-3.908h13.488V264.477H839.42
			c-3.578,0-6.617-1.303-9.12-3.908c-2.505-2.606-3.755-5.695-3.755-9.273c0-3.473,1.25-6.488,3.755-9.043
			C832.803,239.7,835.842,238.421,839.42,238.421z M878.351,264.477v151.89l9.012-0.031c5.702,0,9.984-2.81,12.846-8.43
			l25.445-50.577c3.166-6.641,4.771-12.204,4.809-16.692c-0.005-5.609-1.281-10.916-3.834-15.923l-26.353-52.425
			c-2.759-5.211-7.254-7.814-13.49-7.812H878.351z"/>
		<path fill="#268FB5" d="M1146.112,342.645v31.114c0,3.475-1.278,6.49-3.831,9.043c-2.556,2.555-5.57,3.832-9.043,3.832h-91.042
			v7.51c0,4.395,1.889,8.124,5.671,11.189l7.51,6.284c4.086,3.168,7.97,4.751,11.648,4.751h66.213c3.473,0,6.487,1.253,9.043,3.755
			c2.553,2.505,3.831,5.544,3.831,9.12c0,3.475-1.303,6.49-3.908,9.043c-2.605,2.555-5.594,3.832-8.966,3.832h-67.898
			c-4.498,0-9.223-0.943-14.178-2.835c-4.957-1.89-8.609-3.856-10.959-5.901l-11.495-10.116c-3.578-2.859-6.566-6.845-8.966-11.955
			c-2.402-5.108-3.603-9.81-3.603-14.101V338.2c0-3.372,1.303-7.917,3.909-13.641c2.605-5.721,5.9-10.166,9.886-13.334l10.729-8.43
			c7.051-5.721,14.867-8.583,23.45-8.583h36.172c9.093,0,17.677,3.781,25.749,11.342l9.656,9.196
			C1142.638,320.983,1146.112,330.282,1146.112,342.645z M1042.502,340.652v19.925h78.168v-17.933c0-4.802-1.482-8.48-4.444-11.035
			l-7.511-6.591c-3.885-3.166-7.356-4.751-10.422-4.751h-32.34c-3.985,0-7.613,1.379-10.883,4.139l-7.51,6.284
			C1044.188,333.245,1042.502,336.566,1042.502,340.652z"/>
		<path fill="#268FB5" d="M1242.06,294.211h59.009c9.196,0,17.319,2.735,24.37,8.2c7.051,5.468,10.575,10.806,10.575,16.017
			c0,3.678-1.303,6.693-3.908,9.042c-2.605,2.352-5.493,3.525-8.659,3.525c-4.088,0-7.817-1.839-11.189-5.518
			c-3.371-3.679-6.896-5.518-10.575-5.518h-58.242c-5.724,0-8.583,2.381-8.583,7.142c0,3.343,1.908,5.875,5.728,7.597l68.455,30.477
			c6.947,3.065,12.645,7.997,17.089,14.791c4.445,6.796,6.667,14.331,6.667,22.607c0,11.035-3.908,20.385-11.725,28.048
			s-16.683,11.495-26.593,11.495h-52.111c-8.992,0-17.346-2.706-25.06-8.124c-7.716-5.415-11.572-10.676-11.572-15.787
			c0-3.372,1.25-6.361,3.756-8.966c2.502-2.605,5.747-3.908,9.732-3.908c3.269,0,6.768,1.839,10.499,5.518
			c3.729,3.679,9.119,5.518,16.17,5.518h47.974c3.778,0,6.947-1.456,9.502-4.368c2.554-2.912,3.832-6.257,3.832-10.039
			c0-5.824-2.861-10.013-8.583-12.568l-69.125-31.114c-6.643-2.962-11.751-7.254-15.326-12.875
			c-3.578-5.618-5.365-11.342-5.365-17.166c0-9.196,3.192-17.167,9.58-23.91C1224.764,297.583,1232.657,294.211,1242.06,294.211z"/>
		<path fill="#268FB5" d="M1499.553,441.81h-78.474c-3.578,0-6.617-1.25-9.12-3.755c-2.505-2.503-3.755-5.542-3.755-9.12
			c0-3.473,1.25-6.488,3.755-9.043c2.503-2.553,5.542-3.832,9.12-3.832h26.362V319.96h-26.056c-3.578,0-6.617-1.276-9.12-3.832
			c-2.505-2.553-3.755-5.568-3.755-9.043c0-3.575,1.25-6.667,3.755-9.273c2.503-2.605,5.542-3.908,9.12-3.908h39.236
			c3.576,0,6.615,1.303,9.12,3.908c2.502,2.606,3.755,5.698,3.755,9.273v108.975h25.749c3.576,0,6.668,1.252,9.273,3.755
			c2.605,2.505,3.908,5.544,3.908,9.12c0,3.578-1.279,6.617-3.832,9.12C1506.041,440.56,1503.025,441.81,1499.553,441.81z
			 M1447.135,227.079h13.487c3.576,0,6.615,1.252,9.12,3.755c2.502,2.505,3.755,5.544,3.755,9.12v11.035
			c0,3.578-1.253,6.667-3.755,9.273c-2.505,2.605-5.544,3.908-9.12,3.908h-13.794c-3.679,0-6.771-1.327-9.272-3.985
			c-2.505-2.656-3.705-5.618-3.603-8.89l0.307-11.342c0-3.576,1.25-6.615,3.755-9.12
			C1440.518,228.332,1443.557,227.079,1447.135,227.079z"/>
		<path fill="#268FB5" d="M1666.157,497.294h-55.79c-3.578,0-6.617-1.226-9.12-3.679c-2.505-2.452-3.755-5.518-3.755-9.196
			c0-3.578,1.25-6.59,3.755-9.042c2.503-2.453,5.542-3.679,9.12-3.679h55.79c3.372,0,6.538-1.279,9.503-3.832l8.736-7.51
			c2.962-2.249,4.444-5.211,4.444-8.89v-39.237c-12.058,12.161-23.81,18.239-35.252,18.239h-19.771
			c-10.219,0-19.415-3.525-27.589-10.576l-9.656-8.583c-3.168-2.656-5.9-6.538-8.199-11.648c-2.299-5.108-3.449-10.116-3.449-15.021
			v-42.609c0-6.028,1.15-11.75,3.449-17.167c2.299-5.415,5.031-9.45,8.199-12.108l10.576-9.043
			c7.561-6.538,16.45-9.809,26.669-9.809h18.546c10.115,0,19.312,3.578,27.588,10.729l8.89,7.51l-0.307-5.058
			c0-3.473,1.276-6.487,3.832-9.043c2.553-2.553,5.568-3.832,9.043-3.832c3.575,0,6.667,1.252,9.272,3.755
			c2.606,2.505,3.909,5.544,3.909,9.12v144.38c0,10.932-4.395,20.282-13.182,28.048l-10.422,9.043
			c-2.659,2.349-6.414,4.392-11.266,6.13C1674.867,496.424,1670.346,497.294,1666.157,497.294z M1651.443,319.654h-17.319
			c-3.781,0-7.41,1.482-10.883,4.445l-7.97,6.59c-3.065,2.555-4.598,6.03-4.598,10.422v42.916c0,3.475,1.686,6.744,5.058,9.81
			l8.43,7.51c2.656,2.249,5.465,3.372,8.43,3.372h20.998c3.065,0,6.438-1.533,10.116-4.598l20.385-17.319
			c3.166-2.759,4.751-6.131,4.751-10.116V353.22c0-4.699-1.789-8.53-5.364-11.495l-20.998-17.933
			C1659.514,321.034,1655.835,319.654,1651.443,319.654z"/>
		<path fill="#268FB5" d="M1835.745,324.099l-35.17,22.837v82.306c0,3.475-1.279,6.49-3.832,9.043
			c-2.556,2.555-5.57,3.832-9.043,3.832c-3.475,0-6.49-1.276-9.043-3.832c-2.556-2.553-3.832-5.568-3.832-9.043V307.086
			c0-3.575,1.25-6.667,3.756-9.273c2.502-2.605,5.541-3.908,9.119-3.908c3.473,0,6.487,1.303,9.043,3.908
			c2.553,2.606,3.832,5.698,3.832,9.273v8.583l23.498-14.254c7.879-5.005,16.78-7.51,26.705-7.51h11.972
			c10.23,0,19.082,3.628,26.551,10.882c7.47,7.256,11.409,16.196,11.819,26.822l3.524,97.633c0.101,3.475-1.125,6.49-3.678,9.043
			c-2.556,2.555-5.621,3.832-9.196,3.832c-3.372,0-6.337-1.149-8.89-3.449c-2.556-2.299-3.885-5.441-3.985-9.426l-3.832-96.1
			c-0.306-8.99-5.017-13.488-14.129-13.488h-12.595C1844.448,319.654,1840.25,321.137,1835.745,324.099z"/>
		<path fill="#268FB5" d="M855.854,615.097h67.058c8.183,0,15.933,3.448,23.247,10.346c7.313,6.897,10.973,15.25,10.973,25.06
			c0,3.678-1.303,6.797-3.909,9.35c-2.605,2.555-5.494,3.832-8.66,3.832c-4.395,0-7.41-0.997-9.043-2.989
			c-1.636-1.993-3.195-5.694-4.679-11.112c-1.485-5.414-4.788-8.123-9.905-8.123h-63.727c-3.073,0-4.608,0.991-4.608,2.972
			c-0.082,1.251,0.544,2.692,1.875,4.325l95.738,122.07c4.61,5.922,6.917,12.254,6.917,18.998c0,7.663-2.786,14.407-8.354,20.231
			c-5.57,5.824-11.778,8.736-18.622,8.736h-69.431c-9.196,0-17.193-3.499-23.987-10.499c-6.796-6.998-10.192-14.688-10.192-23.067
			c0-9.603,4.495-14.407,13.488-14.407c3.472,0,6.437,1.253,8.89,3.755c2.452,2.506,3.678,5.441,3.678,8.813
			c0,2.759,0.944,5.058,2.835,6.897c1.89,1.839,4.265,2.759,7.127,2.759h64.067c2.759,0,4.138-1.093,4.138-3.281
			c0.077-1.039-0.551-2.378-1.882-4.012l-95.58-122.072c-4.507-5.818-6.761-12.153-6.761-19c0-7.971,2.864-14.891,8.593-20.768
			C840.866,618.035,847.771,615.097,855.854,615.097z"/>
		<path fill="#268FB5" d="M1106.876,818.792h-25.75c-10.628,0-19.771-3.779-27.435-11.342c-7.664-7.561-11.495-16.654-11.495-27.282
			v-83.532h-13.182c-3.578,0-6.617-1.226-9.119-3.679c-2.506-2.451-3.756-5.518-3.756-9.195c0-3.576,1.25-6.615,3.756-9.12
			c2.502-2.503,5.541-3.755,9.119-3.755h13.487v-31.574c0-3.574,1.251-6.613,3.756-9.119c2.502-2.502,5.541-3.755,9.119-3.755
			c3.372,0,6.36,1.278,8.967,3.831c2.605,2.557,3.908,5.571,3.908,9.043v31.574h51.805c3.473,0,6.488,1.279,9.043,3.832
			c2.553,2.555,3.832,5.57,3.832,9.043c0,3.578-1.279,6.617-3.832,9.119c-2.555,2.505-5.57,3.755-9.043,3.755h-52.111v83.532
			c0,3.475,1.303,6.49,3.908,9.043c2.605,2.556,5.695,3.832,9.272,3.832h25.137c6.845,0,11.393-3.703,13.641-11.112
			c2.247-7.407,6.591-11.112,13.028-11.112c3.779,0,6.871,1.253,9.272,3.755c2.4,2.506,3.603,5.647,3.603,9.427
			c0,7.767-3.655,15.506-10.959,23.22C1127.541,814.937,1118.218,818.792,1106.876,818.792z"/>
		<path fill="#268FB5" d="M1267.284,792.736l43.287-27.589v-81.386c0-3.576,1.25-6.668,3.755-9.273
			c2.503-2.605,5.542-3.908,9.12-3.908c3.575,0,6.614,1.303,9.119,3.908c2.503,2.605,3.755,5.697,3.755,9.273v122.155
			c0,3.476-1.278,6.49-3.831,9.043c-2.556,2.556-5.571,3.832-9.043,3.832c-3.476,0-6.49-1.276-9.043-3.832
			c-2.556-2.553-3.832-5.567-3.832-9.043v-10.115l-22.344,14.561c-8.774,5.62-17.65,8.43-26.628,8.43h-11.937
			c-10.509,0-19.539-3.679-27.088-11.035c-7.549-7.357-11.579-16.348-12.089-26.976l-3.832-97.02
			c-0.206-3.373,0.996-6.361,3.602-8.967s5.695-3.908,9.273-3.908c3.473,0,6.461,1.279,8.966,3.832
			c2.503,2.555,3.806,5.57,3.908,9.043l3.525,95.18c0.307,9.196,5.557,13.795,15.754,13.795H1267.284z"/>
		<path fill="#268FB5" d="M1499.246,688.819v-60.849c0-3.575,1.227-6.614,3.679-9.119c2.452-2.502,5.415-3.755,8.89-3.755
			c3.575,0,6.667,1.253,9.272,3.755c2.606,2.505,3.909,5.544,3.909,9.119v177.946c0,3.578-1.279,6.617-3.832,9.12
			c-2.556,2.505-5.57,3.755-9.043,3.755c-3.679,0-6.744-1.25-9.196-3.755c-2.452-2.503-3.679-5.542-3.679-9.12v-5.671
			c-12.567,12.365-24.319,18.546-35.252,18.546h-21.917c-8.789,0-17.576-3.779-26.362-11.342l-10.729-9.043
			c-2.452-2.35-4.777-6.284-6.974-11.802c-2.198-5.518-3.295-10.677-3.295-15.48v-52.418c0-5.824,1.226-11.469,3.678-16.937
			c2.453-5.465,5.313-9.579,8.583-12.339l10.576-9.043c7.561-6.537,16.45-9.809,26.669-9.809h18.546
			c10.115,0,19.312,3.578,27.588,10.729L1499.246,688.819z M1461.849,696.636h-17.933c-3.781,0-7.204,1.38-10.27,4.139l-8.276,7.204
			c-2.861,2.555-4.291,5.824-4.291,9.809v54.564c0,3.577,1.686,6.796,5.058,9.655l8.43,7.204c2.656,2.352,5.465,3.525,8.43,3.525
			h20.998c2.759,0,6.028-1.583,9.81-4.752l20.385-16.859c3.372-2.962,5.058-6.641,5.058-11.035v-27.896
			c0-6.231-1.789-10.829-5.364-13.794l-20.998-17.933C1470.125,697.915,1466.446,696.636,1461.849,696.636z"/>
		<path fill="#268FB5" d="M1689.147,818.485h-78.474c-3.578,0-6.617-1.25-9.12-3.755c-2.505-2.503-3.755-5.542-3.755-9.12
			c0-3.472,1.25-6.487,3.755-9.042c2.503-2.554,5.542-3.832,9.12-3.832h26.362v-96.101h-26.056c-3.578,0-6.617-1.276-9.12-3.831
			c-2.505-2.553-3.755-5.568-3.755-9.043c0-3.576,1.25-6.668,3.755-9.273c2.503-2.605,5.542-3.908,9.12-3.908h39.236
			c3.576,0,6.615,1.303,9.12,3.908c2.502,2.605,3.755,5.697,3.755,9.273v108.975h25.749c3.576,0,6.668,1.252,9.273,3.755
			c2.605,2.505,3.908,5.544,3.908,9.119c0,3.578-1.279,6.617-3.832,9.12C1695.636,817.235,1692.62,818.485,1689.147,818.485z
			 M1636.729,603.754h13.487c3.576,0,6.615,1.253,9.12,3.756c2.502,2.505,3.755,5.544,3.755,9.119v11.035
			c0,3.578-1.253,6.668-3.755,9.273c-2.505,2.605-5.544,3.908-9.12,3.908h-13.794c-3.679,0-6.771-1.326-9.272-3.984
			c-2.505-2.656-3.705-5.619-3.603-8.891l0.307-11.342c0-3.575,1.25-6.614,3.755-9.119
			C1630.112,605.007,1633.151,603.754,1636.729,603.754z"/>
		<path fill="#268FB5" d="M1904.491,717.328v54.41c0,11.548-5.44,22.224-16.322,32.033c-10.883,9.81-22.098,14.714-33.644,14.714
			h-30.193c-11.752,0-22.991-4.981-33.72-14.943c-10.729-9.963-16.094-20.563-16.094-31.804v-54.41
			c0-11.24,5.235-21.842,15.711-31.805c10.473-9.962,21.841-14.943,34.103-14.943h30.193c11.546-0.203,22.761,4.598,33.644,14.407
			C1899.051,694.797,1904.491,705.578,1904.491,717.328z M1800.575,718.4v52.111c0,4.701,1.686,8.43,5.058,11.189l9.656,8.276
			c2.146,1.839,5.158,2.759,9.043,2.759h29.887c4.393,0,8.378-1.583,11.955-4.752l7.817-6.896c3.166-2.452,4.751-5.875,4.751-10.27
			v-52.111c0-5.108-1.585-8.89-4.751-11.342l-9.043-7.204c-3.065-2.553-6.644-3.831-10.729-3.831h-26.669
			c-5.824,0-10.321,1.379-13.487,4.138l-8.736,7.511C1802.158,710.637,1800.575,714.109,1800.575,718.4z"/>
	</g>
	<g>
	</g>
	<g>
	</g>
	<g>
	</g>
	<g>
	</g>
	<g>
	</g>
	<g>
	</g>
	<g>
	</g>
	<g>
	</g>
	<g>
	</g>
	<g>
	</g>
	<g>
	</g>
	<g>
	</g>
	<g>
	</g>
	<g>
	</g>
	<g>
	</g>
</g>
</svg>
