<?xml version="1.0" encoding="utf-8"?>
<!-- Generator: Adobe Illustrator 21.0.0, SVG Export Plug-In . SVG Version: 6.00 Build 0)  -->
<svg version="1.1" id="betu" xmlns="http://www.w3.org/2000/svg" xmlns:xlink="http://www.w3.org/1999/xlink" x="0px" y="0px"
	 viewBox="0 0 216 216" style="enable-background:new 0 0 216 216;" xml:space="preserve">
<style type="text/css">
	.st0{enable-background:new    ;}
	.st1{fill:#13485B;}
	.st2{fill:#2589AE;}
</style>
<g id="betu">
	<g>
		<g class="st0">
			<g>
				<polygon class="st1" points="904.8,1790.7 804.7,1844.6 752.4,1172.8 852.5,1118.9 				"/>
			</g>
			<g>
				<polygon class="st1" points="852.5,1118.9 752.4,1172.8 110.7,1184 210.8,1130.1 				"/>
			</g>
			<g>
				<polygon class="st1" points="109.8,1184 209.9,1130.1 209.9,1130.5 109.8,1184.3 				"/>
			</g>
			<g>
				<polygon class="st1" points="904.8,1790.7 804.7,1844.6 163,1855.8 263.1,1801.9 				"/>
			</g>
			<g>
				<polygon class="st1" points="263.1,1801.9 163,1855.8 110.7,1184 210.8,1130.1 				"/>
			</g>
			<g>
				<polygon class="st2" points="852.5,1118.9 904.8,1790.7 263.1,1801.9 210.8,1130.1 				"/>
			</g>
			<g>
				<polygon class="st1" points="263.2,1802.9 163.1,1856.8 109.7,1183 209.8,1129.2 				"/>
			</g>
			<g>
				<polygon class="st1" points="905.8,1791.7 805.7,1845.6 163.1,1856.8 263.2,1802.9 				"/>
			</g>
			<g>
				<polygon class="st1" points="209.9,1130.1 109.8,1184 -532,1195.2 -431.8,1141.3 				"/>
			</g>
			<g>
				<path class="st2" d="M209.8,1129.2l643.6-11.2l52.5,673.8l-642.7,11.2L209.8,1129.2z M904.8,1790.7l-52.3-671.8l-641.7,11.2
					l52.3,671.8L904.8,1790.7"/>
			</g>
			<g>
				<polygon class="st1" points="262.2,1802 162.1,1855.8 109.8,1184.3 209.9,1130.5 				"/>
			</g>
			<g>
				<polygon class="st1" points="366.9,3147.6 266.8,3201.4 214.5,2529.6 314.6,2475.7 				"/>
			</g>
			<g>
				<polygon class="st1" points="-379.5,1813.2 -479.7,1867 -532,1195.2 -431.8,1141.3 				"/>
			</g>
			<g>
				<polygon class="st1" points="-379.5,1813.2 -479.7,1867 -533,1194.2 -432.8,1140.4 				"/>
			</g>
			<g>
				<polygon class="st1" points="262.2,1802 162.1,1855.8 -479.7,1867 -379.5,1813.2 				"/>
			</g>
			<g>
				<polygon class="st2" points="209.9,1130.1 262.2,1802 -379.5,1813.2 -431.8,1141.3 				"/>
			</g>
			<g>
				<polygon class="st2" points="209.8,1129.2 262.3,1802.9 -379.5,1814.1 262.2,1802 209.9,1130.1 -431.8,1141.3 -379.5,1813.2 
					-432.8,1140.4 				"/>
			</g>
			<g>
				<polygon class="st1" points="262.3,1802.9 162.1,1856.8 -479.6,1868 -379.5,1814.1 				"/>
			</g>
			<g>
				<polygon class="st1" points="-380.5,1813.2 -480.6,1867 -532.9,1195.2 -432.8,1141.4 				"/>
			</g>
			<g>
				<polygon class="st1" points="1062.5,3809.6 962.3,3863.5 319.7,3874.7 419.8,3820.8 				"/>
			</g>
			<g>
				<polygon class="st1" points="419.8,3820.8 319.7,3874.7 267.3,3202.4 367.5,3148.5 				"/>
			</g>
			<g>
				<polygon class="st2" points="1010.1,3136.8 1062.5,3809.6 419.8,3820.8 367.5,3148.5 				"/>
			</g>
			<g>
				<polygon class="st1" points="314.6,2475.7 214.5,2529.6 -427.2,2540.8 -327.1,2486.9 				"/>
			</g>
			<g>
				<polygon class="st1" points="-328.1,2486 -428.2,2539.8 -480.5,1868 -380.4,1814.2 				"/>
			</g>
			<g>
				<polygon class="st1" points="-432.8,1141.4 -532.9,1195.2 -1174.6,1206.4 -1074.5,1152.6 				"/>
			</g>
			<g>
				<polygon class="st1" points="366.9,3147.6 266.8,3201.4 -374.9,3212.6 -274.8,3158.8 				"/>
			</g>
			<g>
				<polygon class="st2" points="314.6,2475.7 366.9,3147.6 -274.8,3158.8 -327.1,2486.9 				"/>
			</g>
			<g>
				<polygon class="st1" points="-274.8,3158.8 -374.9,3212.6 -427.2,2540.8 -327.1,2486.9 				"/>
			</g>
			<g>
				<polygon class="st2" points="-327.1,2486.9 315.5,2474.7 367.9,3148 -275.2,3159.3 -328,2487 -274.8,3158.8 366.9,3147.6 
					314.6,2475.7 				"/>
			</g>
			<g>
				<polygon class="st1" points="367.9,3148 267.8,3201.9 -375.3,3213.1 -275.2,3159.3 				"/>
			</g>
			<g>
				<polygon class="st1" points="-275.2,3159.3 -375.3,3213.1 -428.1,2540.8 -328,2487 				"/>
			</g>
			<g>
				<polygon class="st2" points="-432.8,1141.4 -380.5,1813.2 -1022.2,1824.4 -1074.5,1152.6 				"/>
			</g>
			<g>
				<polygon class="st1" points="-1022.2,1824.4 -1122.3,1878.2 -1174.6,1206.4 -1074.5,1152.6 				"/>
			</g>
			<g>
				<polygon class="st1" points="-1022.2,1824.4 -1122.3,1878.2 -1175.6,1205.4 -1075.5,1151.6 				"/>
			</g>
			<g>
				<polygon class="st1" points="-380.5,1813.2 -480.6,1867 -1122.3,1878.2 -1022.2,1824.4 				"/>
			</g>
			<g>
				<polygon class="st2" points="-432.8,1140.4 -380.5,1813.2 -432.8,1141.4 -1074.5,1152.6 -1022.2,1824.4 -1075.5,1151.6 				"/>
			</g>
			<g>
				<polygon class="st1" points="-380.4,1814.2 -480.5,1868 -1122.2,1879.2 -1022.1,1825.4 				"/>
			</g>
			<g>
				<polygon class="st1" points="-1765,1889.4 -1664.8,1835.6 -1024,1824.4 -1124.1,1878.3 				"/>
			</g>
			<g>
				<polygon class="st1" points="-1023.1,1824.4 -1123.2,1878.2 -1764.9,1890.4 -1664.8,1836.6 				"/>
			</g>
			<g>
				<polygon class="st1" points="-1023.1,1824.4 -1123.2,1878.2 -1124.1,1878.3 -1024,1824.4 				"/>
			</g>
			<g>
				<polygon class="st1" points="419.8,3820.8 319.7,3874.7 -323,3885.9 -222.8,3832.1 				"/>
			</g>
			<g>
				<polygon class="st2" points="367.4,3148 419.8,3820.8 -222.8,3832.1 -275.2,3159.7 				"/>
			</g>
			<g>
				<polygon class="st1" points="-222.8,3832.1 -323,3885.9 -375.3,3213.6 -275.2,3159.7 				"/>
			</g>
			<g>
				<polygon class="st1" points="-969.8,2497.2 -1069.9,2551 -1122.2,1879.2 -1022.1,1825.4 				"/>
			</g>
			<g>
				<polygon class="st2" points="-380.4,1814.2 -328.1,2486 -969.8,2497.2 -1022.1,1825.4 				"/>
			</g>
			<g>
				<polygon class="st1" points="-328.1,2486 -428.2,2539.8 -1069.9,2551 -969.8,2497.2 				"/>
			</g>
			<g>
				<polygon class="st1" points="-969.8,2497.2 -1069.9,2551 -1123.2,1879.2 -1023,1825.4 				"/>
			</g>
			<g>
				<polygon class="st1" points="-327.2,2486 -427.3,2539.8 -1069.9,2552 -969.7,2498.2 				"/>
			</g>
			<g>
				<polygon class="st2" points="-380.5,1813.2 -327.2,2486 -969.7,2498.2 -328.1,2486 -380.4,1814.2 -1022.1,1825.4 -969.8,2497.2 
					-1023,1825.4 				"/>
			</g>
			<g>
				<polygon class="st1" points="-1075.5,1151.6 -1175.6,1205.4 -1817.3,1217.6 -1717.1,1163.8 				"/>
			</g>
			<g>
				<polygon class="st1" points="-918.4,3170 -1018.5,3223.8 -1070.8,2552 -970.7,2498.2 				"/>
			</g>
			<g>
				<polygon class="st1" points="-1664.8,1835.6 -1765,1889.4 -1817.3,1217.6 -1717.1,1163.8 				"/>
			</g>
			<g>
				<polygon class="st2" points="-1075.4,1152.6 -1023.1,1824.4 -1664.8,1835.6 -1717.1,1163.8 				"/>
			</g>
			<g>
				<polygon class="st2" points="-1075.5,1151.6 -1717.1,1163.8 -1664.8,1835.6 -1023.1,1824.4 -1664.8,1836.6 -1718.1,1162.8 				
					"/>
			</g>
			<g>
				<polygon class="st1" points="-1664.8,1836.6 -1764.9,1890.4 -1818.3,1216.7 -1718.1,1162.8 				"/>
			</g>
			<g>
				<polygon class="st1" points="-865.5,3843.3 -965.6,3897.1 -1018,3224.8 -917.8,3171 				"/>
			</g>
			<g>
				<polygon class="st1" points="-222.8,3832.1 -323,3885.9 -965.6,3897.1 -865.5,3843.3 				"/>
			</g>
			<g>
				<polygon class="st2" points="-275.7,3159.3 -222.8,3832.1 -865.5,3843.3 -917.8,3171 				"/>
			</g>
			<g>
				<polygon class="st1" points="-970.7,2498.2 -1070.8,2552 -1712.5,2563.2 -1612.4,2509.4 				"/>
			</g>
			<g>
				<polygon class="st1" points="-918.4,3170 -1018.5,3223.8 -1660.2,3235 -1560.1,3181.2 				"/>
			</g>
			<g>
				<polygon class="st1" points="-1560.1,3181.2 -1660.2,3235 -1712.5,2563.2 -1612.4,2509.4 				"/>
			</g>
			<g>
				<polygon class="st2" points="-970.7,2498.2 -918.4,3170 -1560.1,3181.2 -1612.4,2509.4 				"/>
			</g>
			<g>
				<path class="st2" d="M-970.8,2497.2l53.4,673.3l-643.1,11.2l-52.9-673.3L-970.8,2497.2z M-918.4,3170l-52.3-671.8l-641.7,11.2
					l52.3,671.8L-918.4,3170"/>
			</g>
			<g>
				<polygon class="st1" points="-1560.5,3181.7 -1660.6,3235.5 -1713.5,2562.3 -1613.4,2508.4 				"/>
			</g>
			<g>
				<polygon class="st1" points="-917.4,3170.5 -1017.5,3224.3 -1660.6,3235.5 -1560.5,3181.7 				"/>
			</g>
		</g>
		<g class="st0">
			<g>
				<polygon class="st1" points="-2407.6,1900.7 -2307.5,1846.8 -1667.6,1835.6 -1767.7,1889.5 				"/>
			</g>
			<g>
				<polygon class="st1" points="-1665.8,1835.6 -1765.9,1889.5 -2408.5,1901.7 -2308.4,1847.8 				"/>
			</g>
			<g>
				<polygon class="st1" points="-1665.8,1835.6 -1765.9,1889.5 -1767.7,1889.5 -1667.6,1835.6 				"/>
			</g>
			<g>
				<polygon class="st1" points="-1718.1,1162.8 -1818.3,1216.7 -2459.9,1228.8 -2359.8,1175 				"/>
			</g>
			<g>
				<polygon class="st1" points="-2307.5,1846.8 -2407.6,1900.7 -2459.9,1228.9 -2359.8,1175 				"/>
			</g>
			<g>
				<polygon class="st2" points="-2307.5,1846.8 -1665.8,1835.6 -2308.4,1847.8 -2360.8,1174 -1718.1,1162.8 -2359.8,1175 				"/>
			</g>
			<g>
				<polygon class="st2" points="-1718.1,1163.8 -1665.8,1835.6 -2307.5,1846.8 -2359.8,1175 				"/>
			</g>
			<g>
				<polygon class="st1" points="-2308.4,1847.8 -2408.5,1901.7 -2460.9,1227.9 -2360.8,1174 				"/>
			</g>
		</g>
		<g class="st0">
			<g>
				<polygon class="st1" points="-865.5,3843.3 -965.6,3897.1 -1608.3,3908.3 -1508.2,3854.5 				"/>
			</g>
			<g>
				<polygon class="st1" points="-1508.2,3854.5 -1608.3,3908.3 -1660.6,3235.5 -1560.5,3181.7 				"/>
			</g>
			<g>
				<polygon class="st2" points="-917.9,3170.5 -865.5,3843.3 -1508.2,3854.5 -1560.5,3181.7 				"/>
			</g>
		</g>
		<g class="st0">
			<g>
				<polygon class="st1" points="-1508.2,3854.5 -1608.3,3908.3 -2250.9,3919.6 -2150.8,3865.7 				"/>
			</g>
			<g>
				<polygon class="st1" points="-2150.8,3865.7 -2250.9,3919.6 -2303.3,3246.8 -2203.2,3192.9 				"/>
			</g>
			<g>
				<polygon class="st2" points="-1561,3181.7 -1508.2,3854.5 -2150.8,3865.7 -2203.2,3192.9 				"/>
			</g>
		</g>
	</g>
</g>
</svg>
